<svg width="27" height="53" viewBox="0 0 27 53" fill="none" xmlns="http://www.w3.org/2000/svg">
<path d="M0.957031 27.104V39.4717H13.3233V27.104H0.957031ZM10.1828 33.9572C10.1828 36.4971 8.83814 37.5235 7.05873 37.5235C5.36597 37.5235 4.09304 36.5688 4.09304 33.9946V29.124H5.17324V34.0244C5.17324 35.8636 5.99198 36.648 7.09608 36.648C8.30776 36.648 9.10408 35.8412 9.10408 34.0244V29.124H10.1828V33.9572Z" fill="white"/>
<path d="M14.0918 27.104V39.4717H26.458V27.104H14.0918ZM23.3773 37.4129H22.2986L19.678 33.2206C19.1085 32.3361 18.5965 31.4159 18.1452 30.4656L18.1078 30.4776C18.1705 31.5234 18.1825 32.5095 18.1825 33.884V37.4129H17.1785V29.1538H18.3543L20.9883 33.3372C21.5402 34.1984 22.0315 35.097 22.4585 36.0265L22.4958 36.0145C22.3987 34.9104 22.3748 33.9079 22.3748 32.6305V29.1643H23.3773V37.4129Z" fill="white"/>
<path d="M0.943359 40.2368V52.6031H13.3111V40.2368H0.943359ZM9.62827 49.3879C8.8424 50.1603 7.56797 50.5727 5.96486 50.5727C5.31605 50.5828 4.66727 50.5509 4.0226 50.477V42.3539C4.77681 42.2407 5.53835 42.1832 6.30102 42.1821C7.83242 42.1821 8.92308 42.5257 9.6447 43.1995C10.3917 43.8748 10.8205 44.843 10.8205 46.1772C10.8205 47.5113 10.3858 48.6289 9.62827 49.3879Z" fill="white"/>
<path d="M6.17291 49.7178C5.81306 49.7301 5.45281 49.7131 5.0957 49.667V43.1381C5.50726 43.0594 5.92576 43.0228 6.34473 43.029C8.59776 43.029 9.70186 44.2422 9.68841 46.2128C9.68841 48.4434 8.44984 49.7298 6.17291 49.7178Z" fill="white"/>
<path d="M6.17291 49.7178C5.81306 49.7301 5.45281 49.7131 5.0957 49.667V43.1381C5.50726 43.0594 5.92576 43.0228 6.34473 43.029C8.59776 43.029 9.70186 44.2422 9.68841 46.2128C9.68841 48.4434 8.44984 49.7298 6.17291 49.7178Z" fill="white"/>
<path d="M14.0918 40.2231V52.5909H26.458V40.2231H14.0918ZM22.442 46.3771C21.8803 46.9748 20.9644 47.2736 19.9186 47.2736C19.6303 47.2829 19.342 47.2583 19.0595 47.2004V50.5082H17.9943V42.3656C18.6702 42.2447 19.356 42.1872 20.0426 42.1938C21.0974 42.1938 21.8683 42.4403 22.3584 42.8826C22.5994 43.0991 22.7901 43.3658 22.9171 43.6639C23.0441 43.962 23.1043 44.2843 23.0934 44.6082C23.0934 45.3522 22.8723 45.9409 22.442 46.3771Z" fill="white"/>
<path d="M19.9455 46.4702C19.6488 46.4771 19.3524 46.4485 19.0625 46.385V43.1758C19.3942 43.1155 19.7309 43.087 20.068 43.0906C21.2453 43.0906 22.0103 43.6151 22.0103 44.7207C22.0103 45.8263 21.2438 46.4702 19.9455 46.4702Z" fill="white"/>
<path d="M0.957031 0.808594V26.3225H26.465V0.808594H0.957031ZM22.8389 14.0922C22.4818 14.5987 22.05 15.0708 21.7198 15.5862C21.7572 15.1784 21.805 14.6749 21.6437 14.2879C21.3426 13.45 21.142 12.5794 21.046 11.6942V11.3446C21.2537 12.2784 22.1725 12.9223 22.1128 13.9697C22.1137 14.2042 22.0789 14.4374 22.0097 14.6614L22.0246 14.6793L22.0665 14.6315C22.2024 14.1191 22.2697 13.5767 22.4818 13.0972C22.7806 12.4084 23.1571 11.7122 23.0047 10.8785C23.4769 11.8646 23.3394 13.1748 22.8389 14.0922ZM22.2726 8.80027C22.5757 9.24177 22.762 9.7528 22.8143 10.2857C22.8665 10.8187 22.783 11.3562 22.5715 11.8481C22.4075 12.2523 22.2926 12.6746 22.2293 13.1061C22.1979 13.0314 22.192 12.9298 22.1651 12.8447C21.926 11.9303 21.0595 11.2774 20.7024 10.4138C20.5861 10.13 20.4985 9.83516 20.4409 9.53384C20.8219 10.2375 21.7602 10.6006 22.0157 11.376C22.1203 11.5732 22.1143 11.8242 22.177 12.0289C22.1839 12.0293 22.1907 12.0271 22.196 12.0226C22.2013 12.0182 22.2047 12.0119 22.2054 12.005C22.1052 11.1996 22.1158 10.3842 22.2368 9.58165C22.2293 9.15286 22.189 8.73901 21.9514 8.40882C22.1008 8.49697 22.1696 8.66729 22.2726 8.80027V8.80027ZM21.8498 8.64339C22.0082 9.35755 21.7781 10.0538 21.923 10.7754C21.5346 10.0104 20.7084 9.65038 20.1421 9.03782C19.8365 8.67652 19.6437 8.23335 19.5878 7.76339C19.9135 8.54926 20.7906 8.72257 21.294 9.38145C21.4629 9.53086 21.5182 9.746 21.6272 9.91931L21.6437 9.90138C21.3538 9.28284 21.2567 8.58662 21.058 7.92774C20.9485 7.62547 20.7481 7.36451 20.4843 7.18072C21.1387 7.32116 21.7109 8.01141 21.8498 8.64339ZM20.0809 6.99993C20.5814 7.44815 20.8055 8.02336 20.9519 8.62247L21.0326 8.81222C20.301 8.28137 19.676 7.61737 19.1904 6.85501L18.6257 6.28279C19.1232 6.49793 19.6566 6.62343 20.0809 7.00442V6.99993ZM10.625 6.45012C11.5885 5.9784 12.6451 5.72777 13.7177 5.71655C15.0003 5.72423 16.2549 6.09257 17.3381 6.77948C18.4213 7.46639 19.2895 8.44417 19.8433 9.60108C20.5738 11.0859 20.7333 12.7873 20.2915 14.382C19.8254 16.2003 18.2955 18.0395 16.5146 18.788C14.5096 19.7711 11.6589 19.5246 9.87203 18.2427C7.38742 16.5409 6.36998 13.6111 7.12148 10.7097C7.57866 8.98702 8.94871 7.24944 10.625 6.45012ZM8.65886 6.38289C8.15985 6.82065 7.81622 7.38241 7.4427 7.89338C7.10953 8.30424 6.68522 8.57616 6.30723 8.92875C6.51191 8.50743 6.51938 8.00394 6.80773 7.61698C7.2186 6.89983 7.98056 6.64734 8.65886 6.38289V6.38289ZM5.92774 7.90832C6.15303 7.61631 6.46797 7.40635 6.82417 7.3107C6.15334 7.77236 6.19517 8.60156 5.98152 9.29181C5.9128 9.54729 5.79477 9.78186 5.7365 10.0388L5.75443 10.0523C5.87905 9.74439 6.06745 9.46638 6.30723 9.23653C6.78682 8.78831 7.50247 8.51938 7.72956 7.86648C7.7191 8.77487 6.96013 9.48753 6.23551 9.99849C5.93077 10.2461 5.67706 10.5505 5.48849 10.8949C5.47205 10.6678 5.52434 10.4362 5.50791 10.1912C5.42574 9.40087 5.36597 8.49697 5.92774 7.90832ZM4.56516 10.6185C4.54425 9.81622 4.87593 9.16033 5.34655 8.56271C5.36 8.56271 5.37046 8.54179 5.38689 8.54478C4.86995 9.32468 5.29725 10.3197 5.27633 11.2132L5.2076 12.1275C5.21657 12.1275 5.21657 12.1619 5.24197 12.1499C5.26646 12.0459 5.28542 11.9407 5.29874 11.8347C5.42574 11.0966 6.05921 10.5737 6.62098 10.0717C6.74045 9.94826 6.83706 9.80459 6.90634 9.64739C6.85514 10.0197 6.74995 10.3826 6.59408 10.7246C6.15782 11.5658 5.35253 12.2635 5.20611 13.2346C5.13589 12.3128 4.49942 11.6076 4.56516 10.6185ZM4.17223 11.76C4.21599 11.5041 4.28712 11.2536 4.38438 11.013C4.17671 12.0737 4.88937 12.8372 5.12394 13.759C5.22254 14.1012 5.24794 14.4717 5.38689 14.7959C5.40034 14.7959 5.4108 14.7959 5.41976 14.778C5.07015 13.8068 5.57514 12.8999 6.08013 12.1335C6.19613 11.9215 6.28163 11.6941 6.33412 11.4582C6.3879 11.9064 6.27734 12.4099 6.21161 12.8686C6.09059 13.4527 5.9128 14.007 5.74696 14.5748C5.65947 14.9439 5.65182 15.3275 5.72455 15.6998L5.67375 15.6594C5.30173 14.9767 4.56815 14.4418 4.35301 13.6948C4.14072 13.0732 4.07876 12.4101 4.17223 11.76V11.76ZM4.13786 13.8337C4.22004 14.9602 5.43022 15.5549 5.99198 16.4857C6.11199 16.6877 6.25432 16.8756 6.41629 17.0459C6.3879 16.9264 6.27734 16.8248 6.23701 16.7023C6.04139 16.2887 5.9673 15.8281 6.02336 15.3741C6.07714 14.7989 6.32217 14.2655 6.22804 13.6604C6.71958 14.7242 6.57018 16.0509 6.84508 17.2028C6.9168 17.4538 7.06321 17.6779 7.15883 17.9199C6.14587 17.2297 4.76835 16.5753 4.32014 15.3083C4.11844 14.8736 4.09752 14.3342 4.13786 13.8337V13.8337ZM4.74445 16.4169C5.30771 17.6914 6.72108 17.8004 7.66681 18.5788C7.83231 18.731 8.01902 18.8583 8.2211 18.9568L8.23007 18.9464C7.99161 18.7516 7.78231 18.5237 7.60854 18.2696C7.05425 17.4986 7.24848 16.4169 6.83313 15.5803C7.21443 16.012 7.53374 16.4947 7.78185 17.0145C8.1225 17.8512 8.25098 18.7955 9.03686 19.4289C8.18525 19.1495 7.1917 19.2287 6.44169 18.7043C5.62893 18.2083 4.89684 17.3552 4.74445 16.4169V16.4169ZM6.19517 18.8074C7.09907 19.8383 8.58565 19.4947 9.78089 19.7621C9.94526 19.8103 10.1162 19.8325 10.2874 19.8278C10.138 19.7352 9.94374 19.7457 9.78687 19.6635C8.84263 19.3303 8.70368 18.3084 8.18973 17.6181C8.84562 18.0529 9.39543 18.6416 10.002 19.2093C10.4368 19.5888 10.9597 19.7651 11.5095 19.8786C11.378 19.9265 11.2107 19.9115 11.0613 19.9504C10.0737 20.1954 8.96962 20.5928 7.92379 20.2342C7.18555 19.9944 6.56706 19.4813 6.19517 18.7999V18.8074ZM18.4807 21.2069C17.4603 21.5878 16.3965 21.1904 15.6002 20.5853C15.2865 20.3806 14.9877 20.0818 14.5738 20.1057C14.4312 20.0981 14.2882 20.1117 14.1495 20.1461C14.9454 20.5199 15.6726 21.025 16.3009 21.6401C16.1803 21.768 16.0499 21.8864 15.911 21.9942C15.279 21.3114 14.5663 20.6496 13.7894 20.2701C13.6338 20.3059 13.4857 20.3686 13.3517 20.4553C12.6804 20.8672 12.0884 21.396 11.6036 22.0166L11.1958 21.6805C11.8192 21.0427 12.5512 20.521 13.3576 20.1401C12.5837 19.8966 12.0772 20.545 11.4886 20.8752C10.8043 21.3518 9.81675 21.5759 8.98606 21.2472C8.52028 21.0864 8.10709 20.8018 7.79082 20.424C8.44521 20.8722 9.41634 20.9215 10.1559 20.6301C11.1524 20.1969 12.1848 19.6501 13.3845 19.9115C13.5728 19.9115 13.7566 20.1028 13.9329 19.9429C14.8337 19.7289 15.7816 19.8483 16.6012 20.279L17.3931 20.5943C18.1282 20.8662 19.0799 20.793 19.7089 20.3418C19.3869 20.7359 18.9617 21.0329 18.4807 21.1994V21.2069ZM19.5744 20.161C18.4285 20.5928 17.2765 20.0639 16.1784 19.8861L15.9678 19.8592C16.4922 19.7412 17.0016 19.5843 17.42 19.2063C18.034 18.6087 18.5823 18.0111 19.2651 17.5405C18.7586 18.1904 18.7063 19.1137 17.8697 19.532C17.6605 19.668 17.4005 19.6919 17.1854 19.795C17.4917 19.795 17.7696 19.6919 18.0729 19.662C19.1949 19.4872 20.4783 19.662 21.2642 18.7103C20.9713 19.3527 20.2422 19.9115 19.5744 20.1461V20.161ZM20.2094 18.9957C19.6267 19.1525 19.0007 19.2033 18.4314 19.3961C19.3936 18.5699 19.3398 17.2924 19.9823 16.3198C20.1712 16.0334 20.3757 15.7576 20.5948 15.4936C20.2049 16.2795 20.3737 17.2954 19.924 18.0574C19.7399 18.3708 19.5057 18.6519 19.2308 18.8896C19.3204 18.8896 19.3996 18.8089 19.4758 18.7566C20.2079 18.0305 21.1596 17.8258 21.9484 17.2342C22.2729 16.9904 22.53 16.668 22.6955 16.2974C22.5431 17.4882 21.3433 18.6192 20.2168 18.9807L20.2094 18.9957ZM21.6556 16.9384C21.2074 17.2372 20.7442 17.5091 20.311 17.8452V17.8064C20.9788 16.6978 20.6516 15.1769 21.058 13.9607L21.2074 13.5543C21.1222 14.3103 21.4509 14.9543 21.43 15.7147C21.4049 16.1561 21.2608 16.5826 21.0132 16.9488H21.0535C21.3807 16.5215 21.6362 16.0658 22.0172 15.6565C22.6073 15.0857 23.2124 14.5016 23.2886 13.7142C23.4933 15.017 22.7567 16.1749 21.6556 16.9234V16.9384Z" fill="white"/>
<path d="M13.5197 11.6858C13.4684 11.755 13.4038 11.8133 13.3297 11.8572C13.2555 11.901 13.1733 11.9296 13.0879 11.9412C13.0446 11.995 13.0551 12.1145 12.949 12.1041C12.9161 12.1788 12.7996 12.2236 12.8444 12.3327C12.8117 12.4608 12.7922 12.592 12.7861 12.7241C12.5844 12.8481 12.6367 12.5568 12.5426 12.4955L12.5067 12.5523C12.4679 12.5628 12.4395 12.5389 12.4111 12.512C12.3949 12.5021 12.3763 12.4968 12.3573 12.4968C12.3384 12.4968 12.3197 12.5021 12.3035 12.512C12.2587 12.5867 12.1915 12.6479 12.2079 12.7495C12.1885 12.8108 12.0854 12.7899 12.0989 12.8541C12.2146 12.8493 12.3296 12.8338 12.4425 12.8078C12.5217 12.8272 12.5919 12.7704 12.6636 12.7674C12.689 12.7809 12.7234 12.8078 12.7114 12.8481H12.7458C12.7719 12.8311 12.7914 12.8057 12.8012 12.7761C12.811 12.7465 12.8104 12.7145 12.7996 12.6853C12.7996 12.6136 12.8862 12.6136 12.9325 12.5926C12.9759 12.6136 12.949 12.6569 12.9564 12.6927C13.1059 12.7495 12.9191 12.8616 12.8982 12.9422C12.8773 13.0229 12.8982 13.1544 12.7697 13.1335C12.7577 13.13 12.7475 13.122 12.7414 13.1111C12.7352 13.1002 12.7336 13.0873 12.7368 13.0752H12.7189C12.7194 13.1062 12.7283 13.1364 12.7447 13.1627C12.761 13.189 12.7841 13.2104 12.8115 13.2246C12.9042 13.1469 12.9086 13.014 13.0461 12.9975C13.1163 12.9228 13.0147 12.8078 13.1208 12.7465C13.2971 12.7465 13.4853 12.6673 13.6258 12.8093C13.6153 12.872 13.5929 12.9004 13.6437 12.9497C13.6182 13.0332 13.5766 13.1109 13.5212 13.1783C13.5293 13.2008 13.5302 13.2253 13.5238 13.2483C13.5174 13.2713 13.5039 13.2918 13.4853 13.3068C13.439 13.5145 13.2015 13.4159 13.0625 13.4876C13.2776 13.6459 13.5439 13.7184 13.8095 13.6908C13.959 13.6908 13.8917 13.504 13.959 13.4233C14.0053 13.1858 14.2249 13.3486 14.3579 13.2829C14.4143 13.1855 14.4528 13.0787 14.4714 12.9676C14.4311 12.9406 14.4004 12.9014 14.384 12.8557C14.3676 12.8099 14.3663 12.7602 14.3803 12.7137C14.3235 12.6345 14.3295 12.491 14.2025 12.4776C14.1957 12.4644 14.1935 12.4493 14.1962 12.4347C14.1989 12.4201 14.2064 12.4068 14.2174 12.3969C14.2174 12.3222 14.2876 12.2968 14.3086 12.2475C14.2309 12.1967 14.2518 12.0847 14.2578 12.0189C14.1248 12.0578 14.1084 11.883 14.0127 11.8456C13.9888 11.7679 13.9037 11.7545 13.8364 11.741C13.6736 11.8187 13.6467 11.6185 13.5242 11.5707C13.5107 11.5334 13.4824 11.4796 13.5242 11.4497C13.566 11.4198 13.6736 11.4497 13.7378 11.4377L13.6796 11.4079C13.6258 11.3466 13.5078 11.384 13.436 11.4079C13.5063 11.4781 13.4779 11.6006 13.5197 11.6858Z" fill="white"/>
<path d="M13.8635 8.44946C13.9937 8.43005 14.1264 8.43461 14.255 8.46291C14.916 8.55092 15.5443 8.80369 16.0822 9.19798C16.0094 9.13275 15.9574 9.04753 15.9328 8.95295C15.9373 8.94687 15.9436 8.94233 15.9508 8.93993C15.9581 8.93753 15.9658 8.93738 15.9731 8.93951C15.9731 8.83343 15.8685 8.77964 15.8521 8.68402C15.8598 8.67183 15.8712 8.66237 15.8846 8.65701C15.898 8.65165 15.9128 8.65064 15.9268 8.65414C16.0377 8.76054 16.1378 8.87765 16.2256 9.00375C16.3003 8.97387 16.3616 9.02168 16.4168 9.06052C16.514 9.11879 16.4542 9.24579 16.5289 9.31302C16.5423 9.51322 16.7859 9.62677 16.7739 9.82697C16.7739 9.87329 16.8337 9.83743 16.8546 9.86133L17.0578 10.1108C17.0508 10.1223 17.0462 10.135 17.0443 10.1482C17.0423 10.1614 17.043 10.1749 17.0464 10.1879C17.0497 10.2008 17.0556 10.213 17.0637 10.2236C17.0719 10.2343 17.082 10.2431 17.0936 10.2498C17.1848 10.2931 17.2431 10.1766 17.3267 10.193C17.4582 10.2677 17.3058 10.3559 17.3193 10.438C17.37 10.438 17.4358 10.3977 17.4761 10.4485C17.4926 10.5232 17.4149 10.571 17.3835 10.6188C17.3835 10.6935 17.4448 10.6771 17.5 10.6935C17.5142 10.6946 17.5279 10.699 17.5401 10.7061C17.5524 10.7133 17.5628 10.7231 17.5707 10.7349C17.5786 10.7467 17.5838 10.7601 17.5858 10.7742C17.5877 10.7882 17.5865 10.8025 17.5822 10.816C17.751 10.9923 17.5314 11.1836 17.6121 11.3703C17.6303 11.4284 17.6315 11.4905 17.6156 11.5492C17.5997 11.608 17.5674 11.661 17.5224 11.702C17.5224 11.8514 17.3895 11.944 17.3372 12.0695L17.1639 12.1039C17.0712 12.195 17.2431 12.3086 17.1489 12.3654L17.5314 12.3728L17.4896 12.3325C17.4613 12.2531 17.4512 12.1685 17.46 12.0847C17.4688 12.0009 17.4962 11.9202 17.5404 11.8484C17.5763 11.7135 17.6376 11.5868 17.7212 11.4749C17.7451 11.4749 17.7884 11.4241 17.8093 11.4749C17.8218 11.5951 17.8017 11.7164 17.751 11.826C17.8616 11.9754 17.8466 12.1861 17.8556 12.3788C18.1933 12.3579 18.5235 12.3519 18.8536 12.3564L18.8238 12.2907C18.7858 11.6811 18.6337 11.0841 18.3755 10.5307C18.3053 10.5307 18.253 10.5919 18.1724 10.571C18.159 10.5659 18.1477 10.5565 18.1402 10.5444C18.1326 10.5323 18.1292 10.518 18.1305 10.5038C18.0145 10.3584 17.8903 10.2197 17.7585 10.0884C17.5822 10.1049 17.5045 9.90466 17.3491 9.88374C17.2102 9.82697 17.3058 9.60137 17.1041 9.66412C17.0523 9.64677 17.0056 9.61679 16.9683 9.57688C16.931 9.53697 16.9043 9.48839 16.8905 9.43553C16.8996 9.34552 16.8868 9.25464 16.8532 9.17062C16.8197 9.0866 16.7663 9.01193 16.6977 8.95295C16.5737 8.90813 16.5244 9.07098 16.3989 9.04409C16.3317 9.00973 16.3616 8.92158 16.3406 8.8648C16.3197 8.80803 16.26 8.77665 16.2704 8.70793C16.4303 8.49727 16.0762 8.50175 16.1539 8.29408C16.133 8.14467 15.9806 8.08491 15.9029 7.96688C15.3828 7.72538 14.8284 7.56611 14.2594 7.49476C14.11 7.47385 13.9771 7.50522 13.8516 7.43799L13.8844 7.50074C13.8725 7.81748 13.8949 8.15364 13.8635 8.44946Z" fill="white"/>
<path d="M13.4056 16.7368C12.6079 16.6912 11.843 16.4041 11.2123 15.9136C11.2332 15.9943 11.3408 16.048 11.3109 16.1481C11.2527 16.2423 11.1346 16.2438 11.0405 16.2423C10.8448 16.2094 10.7028 16.3573 10.5206 16.3767C10.3532 16.4275 10.295 16.2273 10.1426 16.2423C11.0868 17.0655 12.167 17.5869 13.4295 17.6512L13.5251 17.7154L13.4833 17.6004V16.7039L13.4056 16.7368Z" fill="white"/>
<path d="M8.62777 12.8153L8.70098 13.4398C8.73086 13.6819 8.83694 13.9134 8.82947 14.151C8.86682 14.1002 8.84441 14.0016 8.93555 13.9881C8.89819 13.9134 9.00726 13.8477 8.946 13.7835C8.95182 13.6149 9.02121 13.4548 9.14023 13.3352C9.31354 13.3352 9.32549 13.0992 9.5003 13.0902C9.58845 13.0902 9.64223 13.2053 9.68108 13.2396C9.63705 13.1663 9.60804 13.0849 9.59573 13.0003C9.58342 12.9157 9.58805 12.8294 9.60936 12.7466L9.53466 12.7809C9.21832 12.7935 8.9015 12.787 8.58594 12.7615L8.62777 12.8153Z" fill="white"/>
<path d="M9.95345 9.04395V9.10819L9.58591 9.57583C8.98829 10.4005 8.69844 11.3567 8.61328 12.3966L9.54557 12.3787L9.63372 12.413C9.59637 12.3891 9.60533 12.3488 9.59338 12.3144C9.64793 11.3636 10.0308 10.4611 10.6766 9.76109C10.4175 9.54092 10.1758 9.30117 9.95345 9.04395V9.04395Z" fill="white"/>
<path d="M15.1117 14.9592C15.2343 15.0234 15.3822 15.0279 15.5121 15.0817C15.6272 15.1116 15.7064 15.255 15.8498 15.2102C15.9738 15.1429 16.177 15.252 16.2592 15.122C16.2457 14.9965 16.3548 14.9039 16.4086 14.7963L16.4474 14.7859C16.5161 14.8576 16.5132 14.9637 16.543 15.0413C16.6387 14.9397 16.7134 14.8262 16.7985 14.7216C17.0294 14.408 17.1978 14.053 17.2945 13.6758C17.2038 13.6797 17.1139 13.6952 17.0271 13.7221C16.9285 13.7221 16.809 13.7744 16.7283 13.7057C16.6984 13.6803 16.676 13.7206 16.682 13.7475C16.6461 13.7983 16.6118 13.8625 16.5326 13.8386C16.4534 13.8147 16.4713 13.7475 16.4504 13.6997C16.4512 13.7352 16.4456 13.7707 16.434 13.8043C16.3746 13.8738 16.3244 13.9506 16.2846 14.0329C16.2129 14.1105 16.0963 14.0837 16.0216 14.1479C16.0082 14.3108 15.8274 14.2764 15.7228 14.3287C15.7228 14.3481 15.7392 14.3526 15.7497 14.369C15.7751 14.3796 15.8031 14.382 15.8299 14.3759C15.8567 14.3697 15.8809 14.3553 15.8991 14.3347C16.0485 14.3735 16.0112 14.1853 16.0948 14.1315C16.165 14.121 16.2338 14.0598 16.307 14.1076C16.3768 14.2076 16.4062 14.3304 16.3892 14.4512C16.307 14.5319 16.3488 14.6648 16.2905 14.7605C16.304 14.8725 16.1665 14.9233 16.1845 15.0354C16.1592 15.0577 16.1295 15.0744 16.0973 15.0845C16.0651 15.0945 16.0312 15.0976 15.9977 15.0936C15.7246 14.9903 15.4385 14.9249 15.1476 14.8994C15.1358 14.904 15.1259 14.9123 15.1194 14.9231C15.1129 14.934 15.1102 14.9466 15.1117 14.9592V14.9592Z" fill="white"/>
<path d="M10.1427 13.2857C10.1516 13.2245 10.0605 13.208 10.0709 13.1468C10.1352 13.0213 10.0709 12.8181 10.2413 12.7628C10.1878 12.7819 10.1309 12.7892 10.0744 12.784C10.0178 12.7788 9.96314 12.7614 9.91406 12.7329L9.96486 12.8151C9.96486 13.0392 10.0605 13.2528 10.0127 13.4814C10.0575 13.4157 10.0575 13.3275 10.1427 13.2857Z" fill="white"/>
<path d="M15.1035 13.7129C15.103 13.7715 15.1225 13.8284 15.1588 13.8743C15.2903 13.8549 15.235 14.0386 15.356 14.0237C15.4247 14.0028 15.356 13.9445 15.3784 13.9012C15.3605 13.7981 15.2604 13.7876 15.1917 13.7264C15.1842 13.707 15.1917 13.689 15.2081 13.6726C15.1588 13.6442 15.1364 13.6756 15.1035 13.7129Z" fill="white"/>
<path d="M16.5389 16.8354L16.5867 16.7711C16.7995 16.6191 16.9994 16.4497 17.1843 16.2647H17.2097C17.1679 16.2512 17.1156 16.2915 17.0693 16.2647C16.9722 16.2198 16.9572 16.1347 16.9572 16.0361L16.5389 15.6043L16.5165 15.54C16.4813 15.6144 16.4303 15.6802 16.3671 15.7328C16.3671 15.7881 16.3506 15.8702 16.4164 15.9061C16.5508 15.9509 16.7271 16.0405 16.7585 16.2049C16.7032 16.3543 16.4179 16.4903 16.5942 16.6531C16.6539 16.7368 16.5165 16.7667 16.5389 16.8354Z" fill="white"/>
<path d="M11.7654 13.3352C11.7325 13.3173 11.7281 13.3218 11.7012 13.3516C11.6846 13.3569 11.6669 13.3569 11.6504 13.3516C11.6504 13.1589 11.4337 13.274 11.3516 13.1724C11.4472 13.3487 11.501 13.5489 11.5951 13.7252C11.6578 13.8746 11.7923 14.0045 11.8551 14.1584C11.9411 14.0355 12.0392 13.9214 12.1479 13.8178C12.1515 13.7946 12.1504 13.7708 12.1448 13.748C12.1391 13.7252 12.129 13.7037 12.115 13.6848C12.0851 13.6131 12.115 13.5115 12.0583 13.4503C11.9716 13.4816 12.0896 13.5698 12.0583 13.6221C12.0504 13.6263 12.0415 13.6285 12.0325 13.6285C12.0236 13.6285 12.0148 13.6262 12.0069 13.6219C11.999 13.6176 11.9923 13.6114 11.9875 13.6039C11.9826 13.5963 11.9797 13.5877 11.9791 13.5787C11.9408 13.5704 11.9054 13.5522 11.8764 13.526C11.8473 13.4998 11.8255 13.4665 11.8132 13.4293C11.864 13.386 11.7833 13.3681 11.7654 13.3352Z" fill="white"/>
<path d="M17.582 8.80036C17.6552 8.8168 17.6762 8.90196 17.7314 8.94977C17.978 9.08124 18.0422 9.34719 18.2603 9.49659C18.3828 9.75357 18.6652 9.9448 18.6757 10.2436C18.9889 10.9051 19.1643 11.6233 19.1911 12.3547L19.1657 12.395C19.1949 12.3939 19.2228 12.3828 19.2449 12.3637L20.2265 12.3472C20.1623 12.2516 20.1877 12.1127 20.1712 11.9976C20.0412 10.4842 19.3958 9.18882 18.3784 8.04736C18.1684 8.30403 17.9424 8.54706 17.7016 8.77496L17.582 8.80036Z" fill="white"/>
<path d="M14.1083 11.3177C14.186 11.3626 14.2293 11.2819 14.2966 11.264C14.3863 11.2873 14.4657 11.3399 14.5222 11.4134C14.5834 11.4403 14.6417 11.4044 14.6955 11.3835C14.7343 11.1011 15.0869 11.1429 15.1915 10.877L15.1273 10.9024C15.1004 10.8635 15.0331 10.88 15.0361 10.8202C15.093 10.7527 15.1625 10.6968 15.2408 10.6559C14.943 10.4566 14.6158 10.3054 14.2712 10.2077C14.1337 10.1882 13.9975 10.1608 13.8633 10.1255C13.9275 10.3197 13.8633 10.6036 13.9111 10.8292L14.1546 10.9099C14.2278 10.7918 14.3832 10.7605 14.4534 10.6559C14.4983 10.6185 14.5491 10.6559 14.5834 10.6962C14.5894 10.7925 14.5741 10.8889 14.5386 10.9786C14.4475 11.1624 14.2293 11.1848 14.1083 11.3177Z" fill="white"/>
<path d="M17.7312 13.6027C17.6033 14.0648 17.4015 14.5032 17.1336 14.901C17.0216 15.0504 16.911 15.2416 16.7676 15.3163L17.0798 15.5882C17.0963 15.5718 17.0798 15.5434 17.0918 15.521C17.1037 15.4986 17.1112 15.4314 17.162 15.4388C17.3114 15.4388 17.3114 15.5882 17.3996 15.6764C17.3816 15.8064 17.4952 15.908 17.4563 16.0275C18.2851 15.1458 18.7697 13.9958 18.8219 12.7869L18.8667 12.7331C18.5679 12.763 18.2392 12.7421 17.924 12.7466L17.8478 12.7227C17.8503 12.9278 17.8348 13.1328 17.8015 13.3352L17.912 13.4562C17.9255 13.4801 17.9306 13.5077 17.9266 13.5348C17.9225 13.5619 17.9095 13.5868 17.8896 13.6056C17.8667 13.6229 17.8386 13.632 17.8099 13.6315C17.7812 13.6309 17.7535 13.6208 17.7312 13.6027V13.6027Z" fill="white"/>
<path d="M16.8828 12.7002L16.9874 12.8033C17.092 12.8765 17.0218 13.0274 17.1368 13.0901C17.2518 13.1529 17.3161 13.3113 17.3758 13.4263C17.3901 13.3949 17.4001 13.3617 17.4057 13.3277C17.452 13.1409 17.4446 12.9303 17.5028 12.7465C17.2953 12.7765 17.0836 12.7607 16.8828 12.7002V12.7002Z" fill="white"/>
<path d="M14.9487 9.02601C14.5919 8.91365 14.2252 8.83609 13.8535 8.79443L13.8879 8.86914V9.78947L13.9775 9.77304C14.5311 9.83326 15.0569 10.047 15.4955 10.3901L15.5194 10.4618C15.6688 10.2481 15.9033 10.0644 16.0826 9.86418L16.253 9.76407L16.1708 9.7312C15.8092 9.42443 15.3952 9.18553 14.9487 9.02601V9.02601Z" fill="white"/>
<path d="M16.9115 10.5952C16.7819 10.3819 16.6318 10.1817 16.4633 9.99756L16.4469 10.0394C16.1331 10.3636 15.7895 10.7013 15.4922 11.0344C15.5114 11.0761 15.5433 11.1106 15.5833 11.133C15.5968 11.0509 15.6416 10.9836 15.6491 10.8955C15.7282 10.7834 15.8523 10.8536 15.9568 10.8776C16.1197 10.8402 16.2736 10.9149 16.4394 10.9119C16.5634 10.9732 16.5739 11.13 16.6844 11.1913C16.7158 11.2346 16.6919 11.2854 16.6501 11.3198C16.6844 11.5753 16.7995 11.2526 16.9369 11.3198C16.9907 11.3407 17.058 11.3332 17.0983 11.3915C17.1192 11.4976 17.2477 11.4782 17.2477 11.5783C17.2372 11.6291 17.1835 11.6425 17.1476 11.6709C17.1805 11.7725 17.0445 11.8367 17.0908 11.9458C17.288 11.9832 17.2955 11.7546 17.3896 11.647C17.352 11.4678 17.288 11.2951 17.1999 11.1345C17.0893 11.1106 17.0206 10.9851 16.9011 10.9538C16.6889 10.8596 16.9399 10.7237 16.9115 10.5952Z" fill="white"/>
<path d="M14.7214 14.4049C14.8021 14.3212 14.9739 14.3242 14.9814 14.2032C14.8619 14.1837 14.8021 14.2495 14.7214 14.3137C14.7095 14.3391 14.6736 14.3869 14.7214 14.4049Z" fill="white"/>
<path d="M13.4937 18.059L13.528 18.0082L13.4235 18.0351C12.1246 17.9742 10.8921 17.4432 9.95577 16.541L9.94531 16.5814L9.24609 17.2851C10.2587 18.1976 11.5199 18.7884 12.8692 18.9823C13.0957 18.9954 13.3212 19.0223 13.5445 19.063L13.4937 18.9823V18.059Z" fill="white"/>
<path d="M14.0994 15.0409C14.189 15.0573 14.1262 15.153 14.1905 15.1903C14.3294 15.1455 14.437 15.3083 14.5476 15.2067C14.5476 15.0469 14.7224 15.0573 14.8195 15.02C14.9689 14.9274 15.1467 14.8063 15.1302 14.6017L15.1048 14.5718C14.9988 14.5718 14.945 14.6525 14.8688 14.7212C14.7926 14.7899 14.7194 14.6196 14.6462 14.6569C14.6462 14.6734 14.6671 14.6808 14.6805 14.6883C14.6922 14.7021 14.6986 14.7196 14.6986 14.7376C14.6986 14.7557 14.6922 14.7731 14.6805 14.7869C14.5655 14.8915 14.5117 14.7346 14.4012 14.7451V14.7869C14.4012 14.8108 14.4012 14.8467 14.3623 14.8332C14.2921 14.7212 14.1531 14.763 14.0844 14.6644C14.0426 14.6405 14.0007 14.6644 13.9709 14.6988C13.9455 14.7496 13.8379 14.6988 13.8648 14.7809C13.7796 14.8108 13.7707 14.9005 13.7154 14.9572C13.6093 14.9378 13.566 15.0573 13.4629 15.0558C13.4733 15.0753 13.4629 15.1096 13.4928 15.1126C13.555 15.1388 13.6233 15.1471 13.69 15.1365C13.7931 14.9662 13.9559 15.1022 14.0994 15.0409Z" fill="white"/>
<path d="M9.73403 16.2945C9.61599 16.1983 9.50968 16.0884 9.4173 15.9673C9.35764 15.9517 9.30168 15.9244 9.25268 15.8869C9.20369 15.8495 9.16264 15.8027 9.13193 15.7492C9.09757 15.7103 9.13193 15.6431 9.09159 15.6162L9.04976 15.667C8.93024 15.7238 8.8884 15.6013 8.80623 15.552C8.70015 15.4937 8.75244 15.2935 8.60752 15.3294C8.55523 15.3294 8.5373 15.2651 8.50294 15.2323C8.37146 15.2442 8.3371 15.0993 8.26538 15.0276C8.25194 15.0589 8.26539 15.0993 8.22505 15.1187C8.08909 15.1501 8.04128 14.9842 7.94865 14.914C7.92474 14.9245 7.90831 14.9544 7.87394 14.9469C7.83257 14.9109 7.79883 14.8669 7.77471 14.8177C7.75059 14.7684 7.73658 14.7148 7.7335 14.66C7.62145 14.533 7.67374 14.3343 7.69316 14.1804C7.71408 14.1401 7.77384 14.1177 7.76189 14.0654C7.79327 13.9937 7.86797 13.9877 7.93968 13.9847C7.96748 13.9997 7.99072 14.0219 8.00691 14.049C8.05174 14.0206 8.15632 14.049 8.11299 13.9533C8.17804 13.9067 8.25439 13.8783 8.33411 13.8712C8.37653 13.9463 8.42659 14.0169 8.48352 14.0818L8.4372 14.0086C8.34924 13.6701 8.29421 13.3239 8.27286 12.9747C8.27286 12.9538 8.22953 12.9434 8.25493 12.9239V12.9344C8.25319 12.8705 8.25669 12.8065 8.26538 12.7432L8.17425 12.7775H7.22852C7.27738 13.8235 7.56185 14.845 8.0607 15.7656C8.30274 16.2138 8.65832 16.6172 8.95713 17.0356L9.63393 16.3349L9.73403 16.2945Z" fill="white"/>
<path d="M12.8203 15.4654C12.8912 15.391 12.9787 15.3347 13.0758 15.301C12.777 15.3623 12.508 15.1516 12.2496 15.0246C12.1001 14.917 11.9134 14.8274 11.8252 14.6646C11.622 14.9165 11.3954 15.1486 11.1484 15.3578C11.253 15.3578 11.3113 15.4803 11.4009 15.5326C11.9104 15.9569 12.5454 16.1616 13.1355 16.308L12.9742 16.2318C12.8517 16.0929 12.6754 15.933 12.6754 15.7358C12.7934 15.6925 12.7799 15.558 12.8203 15.4654Z" fill="white"/>
<path d="M13.8813 17.6916C14.1323 17.6065 14.4252 17.6199 14.6971 17.5751C14.6393 17.5621 14.587 17.5313 14.5477 17.487C14.3878 17.4765 14.3131 17.3107 14.2623 17.1881C14.2384 17.0985 14.3012 17.0223 14.3385 16.9446C14.2698 16.8042 14.0591 16.9058 13.9366 16.8565C13.9023 16.8281 13.8783 16.7877 13.832 16.7803L13.8813 16.8565C13.8983 17.1346 13.8983 17.4135 13.8813 17.6916V17.6916Z" fill="white"/>
<path d="M17.4785 16.4692C17.3814 16.6545 17.1797 16.768 17.0124 16.9175C16.7913 17.1386 16.4312 17.1849 16.3177 17.5061C16.1996 17.6137 16.1593 17.784 15.9934 17.8453C15.9307 18.0081 15.7574 17.9947 15.6588 18.1157C15.3734 18.3712 15.1896 17.9543 14.9312 17.9035L14.4112 17.9947C14.2305 17.9947 14.0512 18.0589 13.8809 17.9947C13.9063 18.3503 13.9063 18.7073 13.8809 19.0629L13.9451 19.0211C15.5365 18.9569 17.0512 18.3202 18.2106 17.2282L17.495 16.5454L17.4785 16.4692Z" fill="white"/>
<path d="M19.2066 12.7464L19.1498 12.7046L19.1827 12.7972C19.1342 13.8891 18.7583 14.9412 18.104 15.8167C17.9914 15.98 17.8572 16.1272 17.7051 16.2545C17.9768 16.4831 18.2301 16.7329 18.4626 17.0015L18.4895 16.9507C19.5255 15.8092 20.1259 14.3391 20.1852 12.7987L20.227 12.718L20.1762 12.7419L19.2066 12.7464Z" fill="white"/>
<path d="M8.28124 12.407L8.26332 12.274C8.31991 11.2257 8.67386 10.2152 9.28375 9.36065C9.43316 9.18734 9.5482 8.97071 9.73944 8.84072C9.51832 8.63305 9.29122 8.39251 9.05516 8.16392L9.03126 8.07129C8.07535 9.09591 7.46456 10.3943 7.28471 11.784C7.24736 11.9887 7.27276 12.1993 7.23242 12.407C7.58145 12.3786 7.93221 12.3786 8.28124 12.407V12.407Z" fill="white"/>
<path d="M10.9262 10.0225C10.4604 10.5587 10.1449 11.2087 10.0119 11.9065C9.97451 12.0693 9.99543 12.2591 9.92969 12.4129C10.0678 12.371 10.2143 12.3649 10.3555 12.395C10.2793 12.3547 10.342 12.2561 10.2972 12.2023C10.2868 12.1186 10.2733 12.0125 10.3555 11.9573C10.3465 11.8183 10.4944 11.7466 10.5049 11.6211C10.5422 11.4717 10.7051 11.5733 10.7828 11.4986C10.8336 11.4717 10.7828 11.4239 10.7828 11.3865C10.85 11.2939 10.9561 11.2984 11.0368 11.2476C11.0933 11.1516 11.1716 11.0702 11.2654 11.01C11.4686 11.01 11.473 10.7306 11.6658 10.7232C11.4045 10.5057 11.1575 10.2716 10.9262 10.0225V10.0225Z" fill="white"/>
<path d="M12.1152 14.3941C12.4672 14.6881 12.8911 14.883 13.3433 14.9588C13.3658 14.8677 13.3299 14.7527 13.3777 14.6735C13.4255 14.5943 13.5017 14.6018 13.5704 14.6152C13.5801 14.6138 13.5893 14.61 13.5971 14.6041C13.605 14.5982 13.6112 14.5904 13.6152 14.5815C13.6192 14.5725 13.6209 14.5627 13.6202 14.5529C13.6194 14.5432 13.6162 14.5338 13.6108 14.5256C13.5137 14.5076 13.557 14.3986 13.5226 14.3373C13.5226 14.303 13.5839 14.3104 13.5704 14.2656C13.5017 14.2103 13.6033 14.1506 13.5465 14.0923C13.563 14.0818 13.5764 14.0609 13.5928 14.049C13.3867 14.1356 13.1685 14.0101 12.9863 13.9294C12.8966 13.8771 12.7681 13.8278 12.7487 13.7173C12.5963 13.9563 12.3184 14.173 12.1152 14.3941Z" fill="white"/>
<path d="M10.4944 12.761L10.4675 12.9418C10.4272 13.0478 10.2942 12.9687 10.233 13.0404C10.1717 13.1121 10.233 13.1793 10.2733 13.2331C10.1792 13.4512 10.4884 13.52 10.484 13.7157C10.5796 13.8397 10.4705 14.0145 10.608 14.125C10.6378 14.3462 10.5766 14.645 10.7708 14.8183L10.8037 15.0304C10.8425 15.1798 10.6289 15.138 10.6543 15.268C10.6961 15.2486 10.7051 15.3024 10.7081 15.3158C10.9779 14.9973 11.2695 14.6977 11.5806 14.4194L11.4521 14.2894C11.2057 13.9369 11.0283 13.541 10.9292 13.1225L10.8306 13.0732C10.8095 13.172 10.7936 13.2717 10.7828 13.372L10.7484 13.4124C10.6782 13.4124 10.6334 13.3511 10.5721 13.3138C10.5572 13.2764 10.5198 13.2152 10.5721 13.1853C10.6013 13.1832 10.6302 13.1911 10.6543 13.2077C10.6842 13.1718 10.6707 13.1181 10.6886 13.0702C10.6976 12.9881 10.6259 12.9208 10.6767 12.8417C10.7409 12.8417 10.7887 12.9134 10.8156 12.9567C10.8814 12.9776 10.9322 12.9238 10.986 12.8999C10.986 12.8417 11.0666 12.764 10.986 12.7296C11.0211 12.5984 11.0211 12.4604 10.986 12.3292C10.9501 12.2171 10.8246 12.2366 10.732 12.247C10.4571 12.3352 10.7768 12.5458 10.7096 12.7117C10.6677 12.8148 10.5661 12.7221 10.4944 12.761Z" fill="white"/>
<path d="M12.4197 13.4336C12.3945 13.5198 12.3459 13.5974 12.2793 13.6577H12.2987C12.3794 13.5994 12.4392 13.4948 12.5422 13.4889L12.4197 13.4336Z" fill="white"/>
<path d="M13.4937 10.1631C12.9443 10.2109 12.43 10.453 12.043 10.8459H12.1162C12.1998 10.928 12.3313 10.9101 12.3926 11.0207C12.424 11.0804 12.3343 11.0745 12.3388 11.1253C12.3567 11.1387 12.3791 11.1417 12.3926 11.1656C12.4568 11.188 12.4434 11.1282 12.4688 11.1013C12.5524 11.0177 12.5674 11.1835 12.6481 11.1835C12.6612 11.1729 12.6763 11.1651 12.6925 11.1605C12.7087 11.1558 12.7257 11.1545 12.7425 11.1566C12.7592 11.1587 12.7753 11.1642 12.7899 11.1726C12.8045 11.1811 12.8172 11.1924 12.8273 11.2059C12.8826 11.1581 12.9992 11.2059 13.0156 11.1148C13.1217 11.0027 13.0634 10.8294 13.2188 10.7577C13.2741 10.7891 13.2188 10.8399 13.2367 10.8877C13.3413 10.931 13.4608 10.7981 13.5445 10.9056C13.4853 10.6628 13.4681 10.4117 13.4937 10.1631V10.1631Z" fill="white"/>
<path d="M9.99566 8.58537L10.0121 8.53756C10.9597 7.64986 12.1957 7.13371 13.4932 7.08385L13.4633 7.00317L13.4514 6.18592L13.4798 6.0918C12.1569 6.14547 10.8807 6.59518 9.81637 7.38266C9.6087 7.53206 9.42493 7.74272 9.21875 7.86673H9.24863C9.51921 8.08279 9.76928 8.32336 9.99566 8.58537V8.58537Z" fill="white"/>
<path d="M13.4787 7.4707C12.529 7.51948 11.6105 7.82631 10.8222 8.35817C10.6101 8.50757 10.4174 8.69433 10.1992 8.82431C10.4517 8.98268 10.6594 9.24862 10.8865 9.45928L10.9104 9.52352C11.4783 8.99267 12.1857 8.63457 12.9498 8.49114C13.1278 8.44921 13.3112 8.4351 13.4936 8.4493C13.4655 8.12387 13.4605 7.79685 13.4787 7.4707V7.4707Z" fill="white"/>
<path d="M13.4398 8.81671C12.6016 8.8868 11.8073 9.22167 11.1719 9.7729C11.4303 9.95218 11.6604 10.2405 11.8965 10.4482C11.9148 10.4243 11.9318 10.3993 11.9473 10.3735C12.2565 10.1317 12.6081 9.94975 12.9842 9.83714C13.153 9.82071 13.3203 9.74003 13.4966 9.77887C13.4608 9.44567 13.4608 9.10957 13.4966 8.77637L13.4398 8.81671Z" fill="white"/>
<path d="M11.0799 15.7402L11.0664 15.7163L11.0799 15.7581V15.7402Z" fill="white"/>
<path d="M14.5154 6.13048C14.2933 6.1174 14.0722 6.09046 13.8535 6.0498C13.8878 6.36096 13.8913 6.67473 13.864 6.98657C13.8651 6.95738 13.8762 6.92945 13.8953 6.90739C13.9432 6.879 13.982 6.92084 14.0014 6.9537C14.0208 6.98657 14.0268 7.08369 13.9865 7.10311C14.0268 7.10311 14.0477 7.0792 14.0836 7.0792C14.839 7.13407 15.5725 7.35714 16.2306 7.7321V7.71567C16.362 7.64993 16.5294 7.56626 16.6683 7.68131C16.8312 7.62005 16.8625 7.82025 16.994 7.84416C17.0835 7.89035 17.1621 7.95519 17.2245 8.0343C17.2869 8.11342 17.3316 8.20499 17.3556 8.30283C17.384 8.36409 17.4811 8.40741 17.4945 8.47315C17.6036 8.24158 17.8202 8.07723 18.0085 7.87553L18.1235 7.82772C17.1344 6.88896 15.8692 6.29382 14.5154 6.13048V6.13048ZM15.1698 6.82522C15.1136 6.88479 15.0416 6.92722 14.9623 6.94758C14.883 6.96795 14.7995 6.96541 14.7216 6.94026C14.4975 6.98508 14.1837 7.11357 14.0044 6.88348C13.9954 6.86556 13.976 6.84165 13.9955 6.82522C14.0253 6.77143 14.103 6.79085 14.1449 6.80729L14.6349 6.59812C14.8306 6.61456 15.0488 6.63846 15.1653 6.80131L15.1698 6.82522ZM17.0926 7.76946C16.9089 7.81727 16.8924 7.61109 16.7505 7.55879C16.7304 7.53011 16.7218 7.49489 16.7266 7.46019C16.7908 7.3825 16.8521 7.51248 16.9223 7.44375C16.9554 7.45017 16.9864 7.46473 17.0125 7.48611C17.0386 7.5075 17.0589 7.53505 17.0717 7.56626C17.0583 7.64246 17.1479 7.7082 17.0926 7.76946V7.76946Z" fill="white"/>
</svg>
