<svg width="18" height="35" viewBox="0 0 18 35" fill="none" xmlns="http://www.w3.org/2000/svg">
<path d="M8.766 17.7581H0.619873V25.9042H8.766V17.7581Z" fill="#0468B1"/>
<path d="M2.68726 19.0933V22.2967C2.68726 23.9798 3.5288 24.6222 4.65085 24.6222C5.82901 24.6222 6.70702 23.9433 6.70702 22.2715V19.0933H5.9861V22.322C5.9861 23.517 5.46154 24.0499 4.66488 24.0499C3.93554 24.0499 3.39696 23.531 3.39696 22.322V19.0933H2.68726Z" fill="white"/>
<path d="M17.4142 17.7581H9.26811V25.9042H17.4142V17.7581Z" fill="#0468B1"/>
<path d="M11.961 24.5661V22.2294C11.961 21.3234 11.961 20.6698 11.9134 19.9853H11.9386C12.2377 20.6088 12.5769 21.2122 12.9541 21.7918L14.6736 24.5661H15.3833V19.1129H14.7241V21.3963C14.7241 22.2378 14.7241 22.897 14.8026 23.6236H14.7774C14.4971 23.0123 14.1737 22.4217 13.8096 21.8563L12.0761 19.1045H11.3018V24.5661H11.961Z" fill="white"/>
<path d="M17.4142 26.4036H9.26811V34.5497H17.4142V26.4036Z" fill="#0468B1"/>
<path d="M14.7185 28.1539C14.3931 27.8734 13.877 27.7023 13.1925 27.7023C12.7402 27.6976 12.2885 27.7351 11.8432 27.8145V33.1807H12.5445V31.018C12.7291 31.055 12.9173 31.0709 13.1055 31.0657C13.4101 31.0828 13.7149 31.0376 14.0014 30.9329C14.2879 30.8283 14.55 30.6663 14.7718 30.4569C14.9183 30.3016 15.0317 30.118 15.105 29.9173C15.1783 29.7167 15.21 29.5033 15.1982 29.29C15.2033 29.0793 15.1628 28.8699 15.0795 28.6763C14.9962 28.4826 14.8721 28.3092 14.7157 28.168" fill="white"/>
<path d="M13.128 30.5186C12.932 30.5231 12.7361 30.5042 12.5445 30.4625V28.3474C12.7631 28.3091 12.9846 28.2903 13.2065 28.2913C13.9807 28.2913 14.4913 28.6363 14.4913 29.3657C14.4913 30.095 13.9807 30.5186 13.128 30.5186Z" fill="#0468B1"/>
<path d="M8.75757 26.4119H0.61145V34.558H8.75757V26.4119Z" fill="#0468B1"/>
<path d="M6.33956 28.3643C5.86269 27.9211 5.14457 27.6938 4.13753 27.6938C3.63428 27.6945 3.13175 27.732 2.63397 27.8061V33.1583C3.06047 33.2062 3.4896 33.2268 3.91873 33.22C4.97626 33.22 5.815 32.9395 6.33114 32.4401C6.59543 32.1572 6.80074 31.8244 6.9351 31.4613C7.06947 31.0982 7.13021 30.7119 7.11378 30.3251C7.13558 29.9611 7.07758 29.5968 6.94385 29.2576C6.81012 28.9185 6.60387 28.6126 6.33956 28.3615" fill="white"/>
<path d="M4.05617 32.659C3.81908 32.6671 3.58172 32.6559 3.34647 32.6253V28.3251C3.61704 28.2715 3.89258 28.247 4.16837 28.2521C5.65229 28.2521 6.38163 29.0516 6.37321 30.3504C6.37321 31.8175 5.55692 32.6646 4.05617 32.659" fill="#0468B1"/>
<path d="M17.4227 0.441895H0.619873V17.2475H17.4227V0.441895Z" fill="#0468B1"/>
<path d="M15.0327 9.19124C14.797 9.52505 14.5137 9.83642 14.2949 10.1758C14.3452 9.89079 14.3289 9.59797 14.2472 9.32027C14.0491 8.76857 13.9182 8.19499 13.8573 7.61194V7.38192C13.9948 7.99905 14.6007 8.42263 14.5614 9.11269C14.5625 9.26673 14.5398 9.42002 14.4941 9.56712V9.56712L14.5221 9.53627C14.5895 9.19292 14.6832 8.8553 14.8026 8.52642C14.999 8.07199 15.2459 7.61475 15.1477 7.06494C15.2848 7.40456 15.3452 7.77032 15.3243 8.13599C15.3035 8.50167 15.2019 8.8582 15.0271 9.18002" fill="white"/>
<path d="M14.6596 5.70424C14.859 5.99532 14.9815 6.3321 15.0159 6.68325C15.0502 7.0344 14.9952 7.38853 14.8559 7.71272C14.7473 7.9831 14.6719 8.26569 14.6315 8.55426C14.6091 8.50377 14.6063 8.43645 14.5866 8.38034C14.4296 7.78004 13.8601 7.34805 13.6245 6.78142C13.5476 6.59426 13.4903 6.39967 13.4534 6.20075C13.703 6.6636 14.3202 6.90204 14.4885 7.41257C14.5394 7.55232 14.5752 7.69715 14.5951 7.84456C14.5998 7.84461 14.6044 7.84293 14.608 7.83984C14.6117 7.83674 14.614 7.83244 14.6147 7.82773C14.5481 7.29347 14.5557 6.75258 14.6371 6.22039C14.6567 5.94992 14.591 5.68012 14.4492 5.44897C14.5502 5.50508 14.5951 5.61728 14.6624 5.70424" fill="white"/>
<path d="M14.3819 5.60341C14.4857 6.07186 14.3342 6.53191 14.4296 7.00597C14.1743 6.50105 13.6301 6.26542 13.257 5.86148C13.0552 5.62303 12.9283 5.33026 12.8923 5.01994C13.1055 5.53608 13.6834 5.65109 14.0144 6.08308C14.1053 6.18983 14.1791 6.31 14.2332 6.43934C14.0734 6.01546 13.945 5.58043 13.8489 5.13775C13.7766 4.94192 13.6477 4.77201 13.4786 4.64966C13.701 4.71549 13.9019 4.8393 14.0606 5.00839C14.2193 5.17747 14.3302 5.38574 14.3819 5.61182" fill="white"/>
<path d="M13.2177 4.52351C13.5123 4.81202 13.7086 5.18595 13.7788 5.59227L13.8321 5.71569C13.35 5.36742 12.9387 4.93044 12.6202 4.42813L12.2472 4.05225C12.5919 4.15233 12.9166 4.31181 13.2065 4.52351" fill="white"/>
<path d="M6.98752 4.15875C7.62248 3.8469 8.31949 3.682 9.02686 3.67627C9.87157 3.67947 10.6982 3.92098 11.4118 4.37304C12.1254 4.8251 12.6969 5.46936 13.0607 6.23175C13.5371 7.21092 13.637 8.33111 13.3412 9.37912C13.1486 10.0637 12.7971 10.6932 12.3153 11.2163C11.8334 11.7394 11.2348 12.1413 10.5683 12.3893C9.90173 12.6372 9.18603 12.7243 8.47946 12.6433C7.77289 12.5624 7.09543 12.3157 6.50224 11.9234C5.85143 11.4826 5.32702 10.8796 4.98089 10.1739C4.63476 9.46817 4.47892 8.68431 4.5288 7.89989C4.57867 7.11547 4.83254 6.35767 5.26526 5.70149C5.69798 5.04532 6.29456 4.51353 6.99594 4.15875" fill="white"/>
<path d="M5.69435 4.11377C5.38849 4.41282 5.11918 4.74709 4.89208 5.10959C4.65881 5.35418 4.40852 5.58196 4.14311 5.79124C4.27776 5.51073 4.28337 5.18253 4.47412 4.92726C4.75463 4.45319 5.24834 4.28769 5.69435 4.11377Z" fill="white"/>
<path d="M3.89346 5.11818C4.0426 4.92559 4.25035 4.78676 4.48535 4.72266C4.04213 5.02842 4.07019 5.5642 3.92432 6.02705C3.87944 6.19535 3.80089 6.34964 3.76162 6.52356H3.77565C3.8565 6.32028 3.97987 6.13665 4.13751 5.98497C4.45449 5.70445 4.92014 5.51371 5.07443 5.08452C5.07443 5.68201 4.5695 6.15047 4.09263 6.48709C3.89058 6.6506 3.72199 6.85157 3.59612 7.07897C3.59612 6.9275 3.62136 6.77602 3.61014 6.61612C3.55685 6.09437 3.52038 5.49407 3.89066 5.10977" fill="white"/>
<path d="M2.99583 6.89381C2.99843 6.39464 3.18179 5.91331 3.51198 5.53893C3.51198 5.53893 3.526 5.5249 3.53722 5.5249C3.1978 6.04385 3.47831 6.69464 3.46429 7.28372L3.4166 7.89805C3.4166 7.89805 3.4166 7.92049 3.43904 7.91207C3.45574 7.84376 3.46792 7.77441 3.47551 7.70449C3.55686 7.21921 3.97763 6.86295 4.34791 6.53756C4.42615 6.4555 4.48973 6.36062 4.53585 6.25704C4.50276 6.50237 4.43376 6.7415 4.33108 6.96674C4.05056 7.52777 3.51198 7.98501 3.4166 8.62458C3.37172 8.01587 2.95375 7.55582 2.99583 6.89381Z" fill="white"/>
<path d="M2.73776 7.6568C2.76734 7.49147 2.81436 7.32974 2.87801 7.17432C2.74056 7.8728 3.21182 8.37492 3.36611 8.98363C3.4099 9.21397 3.46703 9.44157 3.53722 9.66528C3.53722 9.66528 3.55405 9.66528 3.55966 9.66528C3.32964 9.0201 3.66065 8.4226 3.99446 7.91768C4.0719 7.77895 4.1286 7.62963 4.16277 7.47447C4.17413 7.78614 4.1468 8.09802 4.08142 8.40297C4.00007 8.78727 3.87945 9.15194 3.77566 9.52502C3.71884 9.76615 3.71311 10.0165 3.75883 10.26L3.72516 10.2319C3.48112 9.77468 2.99863 9.41843 2.85557 8.93033C2.71651 8.52103 2.67614 8.08466 2.73776 7.6568" fill="white"/>
<path d="M2.7153 9.02273C2.76859 9.76329 3.55684 10.1448 3.93553 10.7675C4.01597 10.9003 4.10998 11.0244 4.21604 11.1378C4.19641 11.0593 4.12628 10.9919 4.09823 10.9106C3.96845 10.6383 3.91791 10.335 3.95236 10.0354C3.98883 9.65669 4.14592 9.30605 4.08701 8.91333C4.4124 9.61461 4.31422 10.487 4.49375 11.2472C4.55482 11.4077 4.6241 11.565 4.70133 11.7185C4.03371 11.2584 3.13607 10.8208 2.8275 9.99331C2.71486 9.68297 2.67644 9.35058 2.7153 9.02273" fill="white"/>
<path d="M3.11363 10.7228C3.48672 11.5643 4.41802 11.6345 5.04357 12.1478C5.15201 12.248 5.27495 12.3312 5.40824 12.3946V12.3946C5.2528 12.2641 5.11678 12.112 5.0043 11.943C4.63963 11.4353 4.76866 10.7228 4.49376 10.1758C4.74449 10.4608 4.95496 10.7789 5.11931 11.1211C5.34372 11.6821 5.42787 12.2937 5.94682 12.7116C5.38579 12.5265 4.72939 12.5798 4.23569 12.2348C3.95498 12.0731 3.71052 11.8555 3.51749 11.5954C3.32446 11.3353 3.18699 11.0383 3.11363 10.7228" fill="white"/>
<path d="M4.07019 12.2936C4.66488 12.9725 5.64107 12.7452 6.43492 12.922C6.54345 12.9527 6.65598 12.9669 6.76873 12.964C6.67336 12.9051 6.54432 12.9108 6.44053 12.8575C5.81779 12.6358 5.72522 11.9626 5.3858 11.511C5.81289 11.8255 6.21264 12.1755 6.58079 12.5573C6.86698 12.7894 7.20965 12.9414 7.57381 12.9977C7.48685 13.0286 7.37184 13.0202 7.27927 13.0454C6.62848 13.2053 5.90195 13.469 5.20908 13.2333C4.72445 13.0751 4.31761 12.7394 4.07019 12.2936" fill="white"/>
<path d="M12.163 13.8728C11.4926 14.1253 10.7913 13.8728 10.2667 13.4633C10.0535 13.3286 9.8656 13.1351 9.5907 13.1519C9.4963 13.1466 9.40166 13.1561 9.31018 13.1799C9.83445 13.4248 10.3134 13.7568 10.7268 14.1617C10.6485 14.2465 10.5631 14.3244 10.4715 14.3946C10.0752 13.9355 9.60026 13.5508 9.06894 13.2585C8.96938 13.2842 8.87464 13.3259 8.78843 13.3819C8.34071 13.651 7.94614 13.9999 7.6243 14.4114L7.34378 14.1898C7.75461 13.7692 8.23718 13.4254 8.76879 13.1743C8.25826 13.0144 7.92725 13.4548 7.53734 13.6596C7.30245 13.8291 7.0303 13.9398 6.74376 13.9822C6.45722 14.0247 6.16468 13.9978 5.89072 13.9037C5.58239 13.7991 5.30874 13.6118 5.09967 13.3623C5.33068 13.5046 5.59179 13.5909 5.86212 13.6143C6.13245 13.6377 6.4045 13.5975 6.65652 13.4969C7.31292 13.2164 7.99457 12.8517 8.78282 13.0257C8.90905 13.0257 9.02967 13.1491 9.14468 13.0453C9.73758 12.9048 10.3613 12.9835 10.9007 13.2669L11.4253 13.4745C11.6746 13.5669 11.942 13.6001 12.2064 13.5714C12.4707 13.5427 12.7248 13.4528 12.9484 13.309C12.7373 13.567 12.4586 13.7613 12.1434 13.87" fill="white"/>
<path d="M12.8839 13.18C12.1293 13.4605 11.3692 13.1155 10.6398 12.9977L10.5024 12.9808C10.8535 12.9246 11.1835 12.7765 11.4589 12.5516C11.8318 12.1504 12.2382 11.7816 12.6735 11.4492C12.3397 11.8756 12.3061 12.4843 11.7535 12.7592C11.608 12.8274 11.458 12.8855 11.3046 12.9331C11.5008 12.9167 11.6957 12.8877 11.8881 12.8462C12.6287 12.7312 13.473 12.8462 13.992 12.2178C13.7561 12.6713 13.3541 13.0161 12.8699 13.18" fill="white"/>
<path d="M13.3019 12.4113C12.9176 12.5151 12.5052 12.5487 12.1293 12.675C12.7633 12.1308 12.7296 11.2892 13.1532 10.6497C13.276 10.4604 13.4099 10.2787 13.5544 10.1055C13.2991 10.6216 13.4085 11.292 13.114 11.7886C12.9923 11.9987 12.838 12.1881 12.6567 12.3496C12.7174 12.3348 12.7734 12.3049 12.8194 12.2626C13.2991 11.7829 13.9274 11.6483 14.4464 11.2584C14.6597 11.0976 14.8286 10.8852 14.9373 10.6413C14.8391 11.4351 14.0481 12.1813 13.3019 12.4197" fill="white"/>
<path d="M14.2528 11.0566C13.9555 11.2502 13.6553 11.4325 13.3664 11.6541V11.6289C13.8068 10.8967 13.5908 9.89529 13.8629 9.10424L13.9639 8.82373C13.9078 9.32305 14.1238 9.74662 14.1098 10.2487C14.0917 10.5394 13.9947 10.8197 13.8293 11.0594H13.8573C14.0534 10.7678 14.265 10.4868 14.4913 10.2179C14.8812 9.842 15.2767 9.45769 15.3328 8.93594C15.4647 9.80553 14.9766 10.5685 14.2528 11.0622" fill="white"/>
<path d="M10.8839 10.9977L10.9147 10.9556C11.0569 10.8561 11.1902 10.7444 11.3131 10.6218H11.3299C11.3018 10.6218 11.2682 10.6414 11.2373 10.6218C11.2113 10.6068 11.1904 10.5844 11.1774 10.5573C11.1644 10.5303 11.1598 10.5 11.1644 10.4703L10.8839 10.1898L10.867 10.1477C10.8441 10.1974 10.8095 10.2407 10.7661 10.2739C10.7661 10.3104 10.7661 10.3637 10.7997 10.3889C10.8895 10.417 11.0045 10.4759 11.0241 10.5825C10.9877 10.6807 10.7997 10.7704 10.9147 10.877C10.954 10.9303 10.8642 10.95 10.8783 10.9949" fill="#0468B1"/>
<path d="M9.28214 7.36504C9.33543 7.39309 9.36349 7.3398 9.40837 7.32858C9.46766 7.34502 9.5199 7.38051 9.55704 7.42956C9.59631 7.44639 9.63558 7.42956 9.67205 7.40993C9.69449 7.22479 9.92732 7.25003 9.99745 7.07611L9.95537 7.09294C9.93573 7.0677 9.89366 7.07892 9.89366 7.03684C9.93238 6.99415 9.97787 6.95814 10.0283 6.93025C9.83192 6.8042 9.61709 6.70956 9.39154 6.64973C9.29692 6.63842 9.2032 6.62061 9.11102 6.59644C9.13024 6.74999 9.14054 6.90453 9.14188 7.05928L9.30177 7.11258C9.35226 7.03684 9.45325 7.02001 9.49813 6.94708C9.52618 6.92183 9.55985 6.94708 9.58229 6.97232C9.5865 7.03327 9.5779 7.09443 9.55704 7.15185C9.49533 7.27247 9.35226 7.2865 9.27653 7.37626" fill="#0468B1"/>
<path d="M11.6693 8.85741C11.5843 9.166 11.4498 9.45874 11.271 9.7242C11.2105 9.83312 11.1284 9.92857 11.0297 10.0047L11.2317 10.1842C11.2317 10.1842 11.2317 10.1562 11.2317 10.1394C11.2317 10.1225 11.2317 10.0833 11.2766 10.0861C11.3748 10.0861 11.3776 10.1899 11.4337 10.2432C11.4337 10.3301 11.4982 10.3946 11.473 10.4732C12.0186 9.89348 12.3373 9.13668 12.3706 8.34127L12.4015 8.3048C12.1995 8.32444 11.9863 8.3048 11.7787 8.3048L11.745 8.29639C11.7459 8.43072 11.7356 8.5649 11.7142 8.69752L11.7871 8.77887C11.7969 8.79493 11.8005 8.81396 11.7974 8.83248C11.7943 8.85101 11.7847 8.86782 11.7703 8.87986C11.7559 8.89123 11.7381 8.89742 11.7198 8.89742C11.7015 8.89742 11.6837 8.89123 11.6693 8.87986" fill="#0468B1"/>
<path d="M11.1307 6.89369C11.0439 6.75145 10.9434 6.61803 10.8306 6.49536V6.52061C10.623 6.7366 10.3986 6.95821 10.2022 7.17701C10.2131 7.20512 10.2341 7.22814 10.2611 7.24153C10.2611 7.18823 10.3004 7.14054 10.306 7.08725C10.3593 7.01151 10.4379 7.05919 10.508 7.07322C10.6142 7.07057 10.7205 7.07903 10.825 7.09847C10.9063 7.13774 10.9147 7.24153 10.9877 7.2808C10.9958 7.29494 10.998 7.31174 10.9938 7.32751C10.9896 7.34328 10.9793 7.35675 10.9652 7.36495C10.9877 7.53326 11.069 7.32007 11.1532 7.36495C11.1896 7.37898 11.2345 7.36495 11.2598 7.40984C11.285 7.45472 11.3579 7.46874 11.3636 7.53326C11.3692 7.59778 11.3215 7.57534 11.2962 7.59498C11.3187 7.6623 11.2289 7.70438 11.2598 7.77731C11.3888 7.79975 11.3944 7.65108 11.4561 7.58375C11.4309 7.46505 11.3884 7.35069 11.3299 7.24433C11.257 7.24433 11.2121 7.14335 11.1363 7.12652C10.9933 7.07041 11.1588 6.98065 11.1363 6.8965" fill="#0468B1"/>
<path d="M9.13345 11.5614C9.3111 11.5242 9.49103 11.4989 9.67204 11.4856C9.63318 11.4767 9.59796 11.4561 9.57106 11.4267C9.46727 11.4267 9.41677 11.3117 9.38311 11.2275C9.34945 11.1434 9.40836 11.1181 9.4336 11.0677C9.38872 10.9751 9.25127 11.0424 9.16992 11.0087C9.14748 10.9919 9.13065 10.9639 9.09979 10.9583L9.13345 11.0087C9.14502 11.1956 9.14502 11.3829 9.13345 11.5698" fill="#0468B1"/>
<path d="M9.27653 9.81673C9.33543 9.81673 9.29336 9.88966 9.33544 9.9121C9.428 9.88405 9.49813 9.99064 9.57107 9.9121C9.57107 9.80831 9.68608 9.81673 9.7506 9.78868C9.81511 9.76062 9.96659 9.64842 9.95537 9.50816L9.93854 9.48853C9.86841 9.48853 9.83475 9.54182 9.78426 9.5839C9.73376 9.62598 9.68888 9.51658 9.63558 9.54182C9.6376 9.54709 9.64101 9.55171 9.64547 9.55517C9.64992 9.55863 9.65523 9.5608 9.66083 9.56146C9.66083 9.57829 9.67766 9.61195 9.66083 9.62598C9.58229 9.69611 9.54863 9.59232 9.47569 9.60073V9.62598C9.47569 9.64281 9.47569 9.66805 9.45045 9.65683C9.40276 9.5839 9.31299 9.61195 9.26811 9.54743C9.24006 9.5306 9.21201 9.54743 9.19237 9.56987C9.17274 9.59232 9.10541 9.56987 9.12224 9.62317C9.06614 9.64281 9.06053 9.70172 9.01845 9.73818C8.94833 9.73818 8.91747 9.80551 8.85295 9.80551C8.85295 9.80551 8.85295 9.83917 8.87259 9.84197C8.91559 9.85484 8.96142 9.85484 9.00443 9.84197C9.07175 9.73538 9.18115 9.82514 9.28494 9.78587" fill="#0468B1"/>
<path d="M9.93853 8.94153C9.93808 8.9802 9.95096 9.01784 9.975 9.04813C10.062 9.0341 10.0255 9.15472 10.104 9.14631C10.1826 9.13789 10.104 9.09301 10.1209 9.06496C10.1377 9.03691 10.0423 8.98922 9.99744 8.94995C9.95255 8.91067 9.99744 8.9247 9.99744 8.91348C9.99744 8.90226 9.94694 8.91348 9.92731 8.94153" fill="#0468B1"/>
<path d="M9.83756 5.85021C9.60234 5.77797 9.36104 5.72727 9.11664 5.69873L9.13908 5.74922V6.35513H9.19799C9.56454 6.39467 9.91257 6.5366 10.2022 6.76468L10.2191 6.81237C10.3343 6.67313 10.458 6.54105 10.5893 6.41685L10.71 6.33269L10.6567 6.31025C10.4179 6.1087 10.1453 5.95105 9.85158 5.8446" fill="#0468B1"/>
<path d="M5.66071 8.34968L5.70839 8.76204C5.74929 8.91574 5.77836 9.07235 5.79535 9.2305C5.81779 9.19684 5.79535 9.12951 5.86548 9.1211C5.84023 9.07341 5.91036 9.03133 5.86548 8.98926C5.86972 8.87803 5.91464 8.77222 5.99171 8.69191C6.10672 8.69191 6.11514 8.53763 6.23015 8.53202C6.28906 8.53202 6.32552 8.60776 6.35077 8.633C6.32151 8.58253 6.30336 8.52639 6.29756 8.46833C6.29175 8.41028 6.29842 8.35166 6.31711 8.29639L6.26662 8.31883C6.05894 8.32687 5.85097 8.32218 5.64388 8.3048L5.66071 8.34968Z" fill="#0468B1"/>
<path d="M9.68608 9.39881C9.73937 9.3427 9.85439 9.3427 9.85719 9.26416C9.77865 9.26416 9.73937 9.29502 9.68608 9.33709C9.68608 9.35392 9.65522 9.38478 9.68608 9.39881Z" fill="#0468B1"/>
<path d="M11.1111 8.27393L11.1784 8.34405C11.2485 8.38894 11.2037 8.48992 11.2766 8.532C11.3495 8.57408 11.3944 8.67787 11.4337 8.7536C11.4415 8.73251 11.4481 8.71097 11.4533 8.68909C11.4842 8.56566 11.4786 8.4254 11.5178 8.30478C11.3816 8.32459 11.2427 8.31405 11.1111 8.27393Z" fill="#0468B1"/>
<path d="M10.2078 9.84183C10.2836 9.86147 10.3369 9.95684 10.4322 9.92879C10.5276 9.90074 10.6454 9.95404 10.7128 9.86988C10.7128 9.78573 10.7745 9.72682 10.8109 9.65389H10.8362C10.8811 9.70157 10.8811 9.7717 10.9007 9.82219C10.9624 9.75487 11.0129 9.67913 11.069 9.61181C11.217 9.40098 11.3236 9.16395 11.3832 8.91333C11.3233 8.91652 11.2639 8.92688 11.2065 8.94419C11.1419 8.94419 11.0634 8.97785 11.0073 8.94419C10.9512 8.91052 10.9736 8.94419 10.9764 8.97224C10.9792 9.00029 10.9316 9.04798 10.8783 9.03395C10.825 9.01992 10.839 8.97224 10.825 8.94138C10.8292 8.96456 10.8292 8.98833 10.825 9.01151C10.7824 9.04958 10.7439 9.09187 10.71 9.13774C10.6623 9.18823 10.5865 9.1714 10.5388 9.21348C10.5388 9.32008 10.4098 9.29763 10.3425 9.3341C10.3425 9.3341 10.3425 9.34813 10.3593 9.35935C10.376 9.36585 10.3943 9.36719 10.4118 9.36319C10.4293 9.35919 10.4452 9.35004 10.4575 9.33691C10.5501 9.36215 10.5304 9.24434 10.5865 9.20226C10.6426 9.16018 10.6763 9.15457 10.724 9.18823C10.7708 9.25306 10.7909 9.33341 10.7801 9.41264C10.724 9.46594 10.752 9.5529 10.7156 9.61742C10.7156 9.69035 10.6342 9.72402 10.6454 9.79975C10.6283 9.81377 10.6086 9.82421 10.5874 9.83048C10.5662 9.83674 10.544 9.83869 10.522 9.83622C10.3416 9.7683 10.1529 9.7249 9.96098 9.70718C9.9524 9.71081 9.94526 9.71719 9.94069 9.72531C9.93612 9.73343 9.93438 9.74285 9.93574 9.75207C10.0171 9.79414 10.1153 9.79695 10.1994 9.83061" fill="#0468B1"/>
<path d="M8.87258 11.8054L8.89502 11.7717L8.8277 11.7886C7.9722 11.7488 7.16048 11.3988 6.54432 10.804V10.8292L6.08427 11.2949C6.75098 11.8959 7.58057 12.2863 8.46864 12.4169C8.61824 12.4259 8.76717 12.4437 8.91466 12.4702L8.881 12.4169L8.87258 11.8054Z" fill="#0468B1"/>
<path d="M7.96933 9.39035C8.20129 9.58333 8.47989 9.71199 8.77721 9.76344C8.79404 9.70172 8.77721 9.62599 8.79965 9.57549C8.82209 9.525 8.881 9.5278 8.92869 9.53622C8.93482 9.5349 8.94056 9.53213 8.9454 9.52814C8.95025 9.52415 8.95407 9.51906 8.95654 9.51329C8.95901 9.50752 8.96007 9.50125 8.95961 9.49499C8.95916 9.48873 8.95721 9.48266 8.95393 9.47731C8.88942 9.47731 8.91747 9.39316 8.89503 9.35389C8.87258 9.31461 8.9371 9.33425 8.92869 9.3062C8.92027 9.27815 8.94832 9.23046 8.91186 9.19119C8.91186 9.19119 8.93149 9.17155 8.94271 9.16314C8.80807 9.21924 8.6622 9.13789 8.54158 9.08459C8.48267 9.05093 8.39852 9.01727 8.3873 8.94434C8.2607 9.10444 8.12089 9.25364 7.96933 9.39035" fill="#0468B1"/>
<path d="M7.73931 8.69191C7.71967 8.69191 7.71687 8.69191 7.69723 8.69191C7.67759 8.69191 7.67198 8.69191 7.66357 8.69191C7.66357 8.56287 7.52051 8.63861 7.46721 8.57129C7.53173 8.6891 7.56258 8.82095 7.62991 8.93596C7.69723 9.05097 7.75894 9.1211 7.79822 9.21647C7.8538 9.13776 7.91673 9.06449 7.98616 8.99767C7.99141 8.96634 7.98438 8.93419 7.96652 8.90791C7.94689 8.86022 7.96652 8.7957 7.92725 8.75362C7.87115 8.77606 7.94969 8.83217 7.92725 8.86583C7.9222 8.86858 7.91658 8.8701 7.91083 8.87027C7.90508 8.87043 7.89937 8.86923 7.89418 8.86677C7.88898 8.86431 7.88444 8.86065 7.88092 8.8561C7.87741 8.85155 7.87502 8.84623 7.87395 8.84058C7.84868 8.83435 7.82539 8.82182 7.80627 8.80416C7.78714 8.7865 7.77279 8.76429 7.76455 8.7396C7.80944 8.71155 7.76455 8.70033 7.74211 8.67788" fill="#0468B1"/>
<path d="M8.18533 8.75635C8.16781 8.81225 8.13588 8.86256 8.09276 8.90221V8.90221C8.14886 8.86294 8.18533 8.79562 8.25546 8.79001L8.18533 8.75635Z" fill="#0468B1"/>
<path d="M8.81928 10.933C8.29398 10.9032 7.79016 10.7144 7.37464 10.3916C7.38866 10.4449 7.4616 10.4786 7.43916 10.5459C7.41671 10.6132 7.32414 10.6076 7.26243 10.6076C7.13339 10.5852 7.03802 10.6833 6.9202 10.6974C6.80239 10.7114 6.77153 10.5964 6.67055 10.6076C7.26569 11.1563 8.03113 11.484 8.83892 11.5361L8.90063 11.5782L8.87258 11.5024V10.9106L8.81928 10.933Z" fill="#0468B1"/>
<path d="M6.40126 10.6414C6.32448 10.5781 6.25487 10.5066 6.19368 10.4282C6.11467 10.407 6.04716 10.3556 6.00573 10.2851C5.98329 10.2599 6.00573 10.215 5.97768 10.1982L5.94121 10.2318C5.86267 10.2683 5.83462 10.1869 5.77852 10.1533C5.72241 10.1196 5.74485 9.98496 5.64948 10.0074C5.61301 10.0074 5.60179 9.96532 5.57935 9.94569C5.49239 9.94569 5.46995 9.85592 5.42226 9.81104C5.42226 9.83068 5.42226 9.85592 5.39702 9.86995C5.30725 9.88959 5.2764 9.78019 5.21468 9.7353C5.19785 9.7353 5.18663 9.76055 5.16419 9.75494C5.11126 9.70613 5.07912 9.63884 5.07443 9.56699C4.99869 9.48565 5.03235 9.3538 5.04638 9.25282C5.0604 9.22477 5.09967 9.21074 5.09126 9.17708C5.08284 9.14342 5.16139 9.12378 5.20907 9.12098C5.22733 9.13223 5.2427 9.1476 5.25396 9.16586C5.28201 9.14622 5.34653 9.16586 5.32128 9.10134C5.36432 9.07097 5.41466 9.05257 5.46715 9.04804C5.49642 9.09693 5.53024 9.14295 5.56813 9.1855L5.5485 9.13781C5.49101 8.91457 5.45531 8.68629 5.4419 8.45616C5.4419 8.45616 5.41385 8.43652 5.4419 8.4253C5.43853 8.38329 5.43853 8.34108 5.4419 8.29907L5.38019 8.32151H4.75745C4.7946 9.00988 4.98636 9.68102 5.31847 10.2851C5.49766 10.5786 5.69634 10.8598 5.91316 11.1267L6.35918 10.6638L6.40126 10.6414Z" fill="#0468B1"/>
<path d="M7.11937 5.41537C6.97911 5.51074 6.85288 5.63697 6.70702 5.72113C6.86978 5.84765 7.02178 5.98745 7.16145 6.13909V6.18117C7.53828 5.82543 8.00965 5.58585 8.51914 5.4911C8.63485 5.46389 8.75403 5.45443 8.87258 5.46305C8.85717 5.24827 8.85717 5.03266 8.87258 4.81787C8.24747 4.85021 7.64312 5.05295 7.12498 5.40415" fill="#0468B1"/>
<path d="M6.58639 7.75209C6.57774 7.86482 6.55896 7.97654 6.53029 8.0859C6.62228 8.06215 6.71881 8.06215 6.8108 8.0859C6.76031 8.05785 6.8108 7.99333 6.77434 7.95686C6.73787 7.9204 6.7575 7.83344 6.8108 7.79697C6.8108 7.7044 6.90337 7.65671 6.91179 7.57536C6.9202 7.49402 7.04363 7.54451 7.09693 7.49402C7.15022 7.44352 7.09693 7.44633 7.09693 7.42108C7.14181 7.35937 7.21194 7.36217 7.26523 7.32851C7.30265 7.26586 7.35341 7.21223 7.41391 7.17142C7.55136 7.17142 7.55136 6.98909 7.6804 6.98348C7.50562 6.84045 7.3398 6.68682 7.18389 6.52344C6.87666 6.87571 6.66938 7.30383 6.58359 7.76331" fill="#0468B1"/>
<path d="M6.67055 8.66105C6.67055 8.61898 6.61726 8.61056 6.62287 8.56848C6.62848 8.52641 6.62287 8.35249 6.73507 8.31602C6.70023 8.32838 6.66313 8.33303 6.62632 8.32964C6.58951 8.32624 6.55388 8.3149 6.52188 8.29639L6.55274 8.34968C6.58216 8.49453 6.59346 8.64246 6.5864 8.79009C6.61165 8.74521 6.61726 8.68911 6.67055 8.66105" fill="#0468B1"/>
<path d="M7.28768 10.2767L7.27927 10.2627L7.28768 10.2879V10.2767Z" fill="#0468B1"/>
<path d="M6.54432 5.90903L6.30028 6.2176C5.91757 6.76458 5.69598 7.40795 5.66071 8.0746H6.27503L6.33113 8.09704C6.30869 8.08021 6.3143 8.05496 6.30589 8.03252C6.34039 7.40569 6.59235 6.81051 7.01839 6.34944C6.84961 6.20449 6.69207 6.04695 6.54713 5.87817L6.54432 5.90903Z" fill="#0468B1"/>
<path d="M8.43498 10.0973C8.48031 10.0465 8.53842 10.0087 8.60329 9.98791C8.40412 10.0272 8.2274 9.88412 8.05909 9.80558C7.94944 9.74732 7.85374 9.66597 7.77858 9.56714C7.64941 9.73381 7.50374 9.887 7.34378 10.0244C7.41391 10.0244 7.45038 10.1057 7.50928 10.1394C7.84695 10.3945 8.2384 10.5691 8.65378 10.6499L8.54719 10.5994C8.46584 10.5097 8.35083 10.4003 8.34802 10.274C8.42656 10.246 8.41815 10.1562 8.4462 10.0973" fill="#0468B1"/>
<path d="M6.90338 8.316L6.88374 8.43382C6.85849 8.50395 6.77153 8.45345 6.73226 8.50114C6.69299 8.54883 6.73226 8.59091 6.75751 8.62737C6.6958 8.77043 6.89777 8.81532 6.89496 8.94435C6.95948 9.0257 6.89496 9.14352 6.97631 9.22487C6.99595 9.37073 6.95667 9.56709 7.08571 9.6821L7.10815 9.82236C7.1334 9.91774 6.99314 9.89249 7.00997 9.97664C7.03802 9.97664 7.04363 9.99908 7.04644 10.0075C7.22597 9.79872 7.41901 9.60194 7.6243 9.41842L7.54014 9.33146C7.37638 9.10109 7.25918 8.84095 7.19511 8.56566L7.13059 8.532C7.11599 8.59765 7.10569 8.66417 7.09974 8.73116L7.06327 8.74519C7.01558 8.74519 6.98473 8.70592 6.94545 8.68067C6.90618 8.65542 6.91179 8.61615 6.94545 8.59652C6.96429 8.59508 6.98306 8.60002 6.99875 8.61054C7.01839 8.5881 6.99875 8.55163 7.02119 8.52078C7.04363 8.48992 6.97911 8.41699 7.02119 8.3693C7.06607 8.3693 7.09693 8.41699 7.11376 8.44504C7.13059 8.47309 7.1895 8.4254 7.22597 8.40857C7.26243 8.39174 7.27926 8.31881 7.22597 8.29637C7.24987 8.2101 7.24987 8.11895 7.22597 8.03268C7.20072 7.95975 7.11937 7.97097 7.05766 7.97658C6.87532 8.03549 7.08852 8.17294 7.04363 8.28514C7.01558 8.34966 6.95106 8.28515 6.90338 8.316" fill="#0468B1"/>
<path d="M12.6399 8.29636L12.6034 8.26831L12.6259 8.33002C12.5928 9.04889 12.3457 9.74147 11.9162 10.3189C11.8412 10.4237 11.7525 10.5181 11.6525 10.5994C11.8316 10.7537 11.9985 10.9215 12.1518 11.1015L12.1686 11.0678C12.8527 10.3165 13.2499 9.34809 13.2907 8.33283L13.3187 8.27953L13.2851 8.29636H12.6399Z" fill="#0468B1"/>
<path d="M6.57518 5.5641V5.53324C7.19669 4.94795 8.00837 4.60634 8.86136 4.57108L8.84173 4.51778V3.97919L8.85856 3.91748C7.98993 3.94963 7.15116 4.2429 6.45175 4.75902C6.3143 4.85159 6.19368 4.99465 6.05342 5.076H6.07306C6.25201 5.22033 6.41814 5.37989 6.56957 5.55288" fill="#0468B1"/>
<path d="M8.84172 5.71556C8.2878 5.76261 7.76319 5.98463 7.34378 6.34952C7.51143 6.48862 7.67066 6.63756 7.82065 6.79553C7.83316 6.7796 7.84441 6.76272 7.85432 6.74504C8.05743 6.5863 8.2887 6.46733 8.53596 6.3944C8.64596 6.36168 8.76082 6.34839 8.87539 6.35513C8.85014 6.13518 8.85014 5.91306 8.87539 5.69312L8.84172 5.71556Z" fill="#0468B1"/>
<path d="M8.87259 6.61328C8.51101 6.64537 8.17278 6.80553 7.91884 7.06491H7.96653C8.01982 7.11821 8.10678 7.10699 8.14886 7.17992C8.19094 7.25285 8.10959 7.21358 8.11239 7.24724C8.1152 7.2809 8.14044 7.24724 8.14886 7.27529C8.15728 7.30335 8.18252 7.25005 8.19655 7.23322C8.21057 7.21639 8.26107 7.28651 8.31717 7.28651C8.32586 7.27951 8.3359 7.27436 8.34666 7.2714C8.35743 7.26844 8.36869 7.26773 8.37974 7.26931C8.39079 7.27089 8.4014 7.27472 8.4109 7.28058C8.42041 7.28644 8.4286 7.29418 8.43498 7.30335C8.47145 7.26968 8.54719 7.30335 8.55841 7.24163C8.62854 7.1687 8.58927 7.05369 8.69306 7.006C8.72672 7.02564 8.69306 7.0593 8.69306 7.09296C8.76038 7.12101 8.83892 7.03405 8.89503 7.09296C8.86041 6.93549 8.85282 6.77329 8.87259 6.61328" fill="#0468B1"/>
<path d="M8.89503 7.6063C8.86223 7.652 8.82042 7.69051 8.77218 7.71946C8.72394 7.7484 8.67028 7.76717 8.61452 7.7746C8.58646 7.81107 8.59207 7.88962 8.52195 7.8812C8.4995 7.93169 8.42377 7.95974 8.45462 8.03268C8.43271 8.11713 8.41955 8.20361 8.41535 8.29075C8.28351 8.3721 8.31998 8.17855 8.25546 8.13927L8.23021 8.17854C8.20497 8.17854 8.18813 8.17854 8.1685 8.15049C8.14886 8.12244 8.1152 8.13647 8.09837 8.15049C8.08154 8.16452 8.02263 8.24026 8.03385 8.30758C8.04507 8.3749 7.95531 8.33283 7.96372 8.3749C8.03945 8.37309 8.11473 8.36274 8.18813 8.34405C8.24143 8.34405 8.28351 8.3188 8.334 8.3188C8.34497 8.32207 8.35428 8.32942 8.36001 8.33932C8.36575 8.34923 8.36748 8.36096 8.36486 8.3721H8.38449C8.40119 8.35996 8.41349 8.34274 8.41956 8.32301C8.42563 8.30328 8.42514 8.28212 8.41816 8.2627C8.41816 8.21782 8.47706 8.21782 8.50792 8.20379C8.53878 8.18977 8.50792 8.24587 8.52195 8.26831C8.62293 8.30758 8.4995 8.38051 8.48548 8.43381C8.47145 8.48711 8.48548 8.57126 8.39852 8.56004C8.39109 8.55693 8.38502 8.55126 8.38142 8.54405C8.37781 8.53684 8.37692 8.52858 8.37888 8.52077H8.36486C8.3656 8.54149 8.37167 8.56166 8.38248 8.57935C8.39329 8.59704 8.40847 8.61165 8.42657 8.62176C8.48828 8.57126 8.49109 8.4815 8.58085 8.47028C8.67062 8.45906 8.56122 8.34685 8.63135 8.30758C8.74636 8.30758 8.86978 8.25428 8.96516 8.34685C8.96516 8.38893 8.94272 8.40857 8.96516 8.43942C8.94711 8.49428 8.91958 8.54555 8.88381 8.5909C8.88932 8.60577 8.88983 8.62202 8.88528 8.63721C8.88072 8.65239 8.87134 8.66568 8.85856 8.67505C8.83051 8.81251 8.67342 8.74799 8.57805 8.79287C8.71953 8.89885 8.89605 8.94699 9.07175 8.92752C9.16993 8.92752 9.12505 8.80409 9.17554 8.75079C9.2064 8.59651 9.35227 8.70311 9.43923 8.66103C9.47468 8.59527 9.4993 8.52423 9.51216 8.45064C9.48636 8.4326 9.46682 8.40696 9.45626 8.3773C9.44571 8.34764 9.44465 8.31543 9.45325 8.28514C9.41679 8.23184 9.41959 8.13927 9.33544 8.12805C9.33544 8.11122 9.33544 8.08878 9.33544 8.07475C9.33544 8.06073 9.38032 8.01024 9.39434 7.97096C9.34385 7.94011 9.35788 7.86437 9.36068 7.82229C9.27372 7.84754 9.26531 7.73253 9.20079 7.70728C9.18396 7.65679 9.12786 7.64837 9.08297 7.63996C8.97638 7.69045 8.95955 7.55861 8.8782 7.52775C8.8782 7.50251 8.85015 7.46604 8.8782 7.4464C8.90625 7.42677 8.97077 7.4464 9.01846 7.4464L8.98199 7.42677C8.94552 7.3875 8.86698 7.41274 8.81929 7.42677C8.86417 7.47165 8.84454 7.553 8.87259 7.6091" fill="#0468B1"/>
<path d="M5.44471 8.08024L5.43068 7.99328C5.46689 7.30292 5.69948 6.63725 6.10111 6.07457C6.18668 5.94856 6.28749 5.83361 6.40126 5.73234C6.25539 5.59489 6.10392 5.4378 5.95244 5.28632L5.94122 5.22461C5.31321 5.90048 4.91209 6.75569 4.79392 7.67069C4.76867 7.80534 4.79392 7.9512 4.76025 8.08024C4.98997 8.06341 5.2206 8.06341 5.45032 8.08024" fill="#0468B1"/>
<path d="M11.5038 10.7563C11.4183 10.8673 11.3138 10.9623 11.1952 11.0369C11.0494 11.1827 10.8137 11.2136 10.738 11.4268C10.6595 11.4969 10.6342 11.6091 10.5248 11.6484C10.4827 11.7578 10.3677 11.7494 10.3032 11.8279C10.1153 11.9962 9.99465 11.7213 9.82634 11.6877L9.48131 11.7494C9.36619 11.769 9.24858 11.769 9.13347 11.7494C9.1503 11.9838 9.1503 12.2191 9.13347 12.4535L9.17555 12.4254C10.2219 12.3806 11.2173 11.9615 11.9807 11.2444L11.5122 10.8209L11.5038 10.7563Z" fill="#0468B1"/>
<path d="M9.12224 4.51228C9.12284 4.49286 9.12973 4.47415 9.14188 4.45898C9.17273 4.43935 9.20078 4.45898 9.21201 4.48984C9.22323 4.52069 9.22884 4.57399 9.21201 4.59363C9.23725 4.59363 9.25128 4.5768 9.27652 4.5768C9.76981 4.61557 10.2486 4.76207 10.6791 5.00598V5.00598C10.7661 4.9611 10.8783 4.905 10.9596 4.98074C11.069 4.94147 11.0886 5.07331 11.1756 5.09014C11.2346 5.12083 11.2863 5.16372 11.3274 5.21595C11.3685 5.26818 11.3981 5.32857 11.414 5.39309C11.4337 5.43236 11.4954 5.46042 11.5038 5.50249C11.5971 5.35649 11.7115 5.22509 11.8432 5.11258L11.919 5.07892C11.2679 4.45971 10.4349 4.06632 9.54301 3.95686C9.39713 3.94791 9.25194 3.93011 9.10822 3.90356C9.12797 4.1088 9.12797 4.31546 9.10822 4.52069" fill="#0468B1"/>
<path d="M9.12224 5.47426C9.20769 5.46028 9.29485 5.46028 9.38031 5.47426C9.81573 5.53279 10.2295 5.69965 10.5837 5.95955C10.5339 5.91672 10.4977 5.86012 10.4799 5.79685C10.4842 5.79439 10.489 5.79309 10.4939 5.79309C10.4989 5.79309 10.5037 5.79439 10.508 5.79685C10.508 5.72672 10.4378 5.69306 10.4266 5.62854C10.4325 5.62105 10.4403 5.61528 10.4492 5.61183C10.4581 5.60838 10.4677 5.60737 10.4771 5.60891C10.5495 5.67938 10.6152 5.75638 10.6735 5.83893C10.724 5.81929 10.7632 5.83893 10.7997 5.8782C10.8362 5.91747 10.825 5.99882 10.8726 6.0437C10.8726 6.17554 11.0438 6.24848 11.0353 6.38032C11.0353 6.41398 11.0746 6.38032 11.0886 6.40276L11.2233 6.56826C11.2183 6.5757 11.2149 6.58409 11.2133 6.59291C11.2117 6.60173 11.212 6.61078 11.2141 6.61949C11.2162 6.6282 11.2201 6.63638 11.2256 6.64349C11.231 6.65061 11.2379 6.65652 11.2457 6.66083C11.3046 6.68888 11.3383 6.61315 11.4 6.62437C11.4617 6.63559 11.386 6.73096 11.4 6.78426C11.4337 6.78426 11.4757 6.75901 11.5038 6.78426C11.5319 6.8095 11.4617 6.8628 11.4421 6.89646C11.4224 6.93013 11.4842 6.93293 11.5178 6.94415C11.5274 6.94452 11.5368 6.94712 11.5452 6.95175C11.5536 6.95637 11.5608 6.96289 11.5662 6.97078C11.5717 6.97868 11.5752 6.98773 11.5765 6.99723C11.5779 7.00673 11.577 7.01641 11.5739 7.0255C11.6861 7.14051 11.5403 7.26674 11.5936 7.39017C11.605 7.42852 11.6055 7.46928 11.5951 7.50791C11.5847 7.54655 11.5638 7.58153 11.5347 7.60897C11.5347 7.70715 11.4477 7.76886 11.4112 7.85021L11.2962 7.87265C11.2373 7.93437 11.3495 8.0073 11.2962 8.04657H11.5487L11.5206 8.02132C11.503 7.97075 11.4966 7.91693 11.5019 7.86363C11.5072 7.81033 11.5242 7.75883 11.5515 7.71276C11.5908 7.63422 11.5992 7.53604 11.6693 7.46871C11.6861 7.46871 11.7142 7.43505 11.7282 7.46871C11.7361 7.54725 11.7235 7.62649 11.6917 7.69873C11.7475 7.81173 11.7708 7.93796 11.7591 8.0634C11.9807 8.04938 12.1995 8.04657 12.4155 8.04657L12.393 8.01571C12.3731 7.61535 12.2779 7.22233 12.1125 6.85719C12.0648 6.85719 12.0312 6.89646 11.9779 6.88244C11.969 6.87925 11.9615 6.87296 11.9569 6.86471C11.9522 6.85647 11.9507 6.84682 11.9526 6.83756C11.8758 6.73936 11.7934 6.64569 11.7058 6.55704C11.5908 6.55704 11.5403 6.43642 11.4253 6.4224C11.3102 6.40837 11.3972 6.23726 11.2654 6.27653C11.2309 6.26588 11.1997 6.24665 11.1746 6.22065C11.1496 6.19465 11.1316 6.16272 11.1223 6.12786C11.1282 6.06742 11.1193 6.00644 11.0964 5.95022C11.0734 5.894 11.037 5.84424 10.9905 5.80527C10.9091 5.77721 10.8754 5.88381 10.7941 5.86698C10.7127 5.85015 10.7717 5.78563 10.7576 5.74916C10.7436 5.7127 10.7043 5.69025 10.7099 5.64537C10.8137 5.50511 10.5837 5.50792 10.6342 5.36486C10.6342 5.26668 10.5192 5.23021 10.4687 5.15167C10.1251 4.99239 9.7589 4.88735 9.38311 4.8403C9.28797 4.84503 9.19279 4.83171 9.1026 4.80103L9.12504 4.8431C9.12504 5.05349 9.12504 5.27509 9.12504 5.46865" fill="#0468B1"/>
<path d="M11.5711 5.7044C11.6188 5.7044 11.6329 5.77172 11.6637 5.80538C11.8264 5.89234 11.8685 6.06907 12.0115 6.16725C12.0929 6.33555 12.2921 6.46459 12.2921 6.65814C12.4975 7.09344 12.6129 7.56572 12.6315 8.04669L12.6146 8.07474C12.634 8.07376 12.6526 8.06691 12.6679 8.0551H13.3131C13.2711 7.99059 13.2879 7.90082 13.2767 7.82508C13.1829 6.84645 12.7665 5.92675 12.0929 5.21069C11.954 5.37944 11.8051 5.53962 11.6469 5.69037L11.5711 5.7044Z" fill="#0468B1"/>
<path d="M9.21201 4.40557C9.23164 4.36911 9.28213 4.38313 9.31019 4.40557L9.63278 4.26532C9.69741 4.26183 9.76204 4.27202 9.82247 4.29522C9.88289 4.31843 9.93773 4.35412 9.98342 4.39996V4.41679C9.94803 4.45383 9.90318 4.48046 9.85373 4.49381C9.80428 4.50716 9.75212 4.50672 9.7029 4.49253C9.55423 4.52058 9.34665 4.60474 9.22884 4.45326C9.22884 4.45326 9.21201 4.42801 9.22884 4.41679" fill="white"/>
<path d="M11.1363 4.81224C11.1587 4.81595 11.1798 4.82539 11.1975 4.83964C11.2152 4.8539 11.2289 4.87248 11.2373 4.89359C11.2373 4.94409 11.285 4.98616 11.2373 5.02543C11.1167 5.0591 11.1055 4.92164 11.0129 4.88798C11.0059 4.87894 11.0007 4.86856 10.9978 4.85746C10.9949 4.84637 10.9943 4.8348 10.9961 4.82346C11.0382 4.77297 11.0774 4.85713 11.1251 4.82346" fill="white"/>
</svg>
